<svg xmlns="http://www.w3.org/2000/svg" viewBox="0 0 525.32 61.04"><defs><style>.cls-1{fill:#231f20;}</style></defs><g id="Layer_2" data-name="Layer 2"><g id="Layer_1-2" data-name="Layer 1"><path class="cls-1" d="M10.78,2.29H22.86q2.59,0,5.58-.21t3.39-.21a2.52,2.52,0,0,1,1.55.3,1.93,1.93,0,0,1,.39,1.22l.42,5.23v.44a2.19,2.19,0,0,1-.12,1,.83.83,0,0,1-.6.15c-.58,0-1-.4-1.22-1.2-.17-.55-.33-1-.47-1.37a3.67,3.67,0,0,0-2-2.07A13.31,13.31,0,0,0,25.15,5h-.87c-1.81,0-2.91.15-3.29.44s-.57,1-.57,2V30.23a7.13,7.13,0,0,0,.65,3.36,4,4,0,0,0,2.09,1.8,8.69,8.69,0,0,0,1.54.37q1.77.3,1.77,1.2a1,1,0,0,1-.31.84,1.45,1.45,0,0,1-1,.28c-.23,0-1.17-.08-2.8-.23s-3.13-.22-4.5-.22-2.91.07-4.76.22-3,.23-3.43.23a1.82,1.82,0,0,1-1.07-.27.85.85,0,0,1-.37-.76c0-.54.5-.94,1.52-1.19a9.92,9.92,0,0,0,1.49-.47,4,4,0,0,0,2.13-1.77,6.56,6.56,0,0,0,.68-3.24V7.27c0-1-.17-1.68-.53-1.94a5.87,5.87,0,0,0-2.83-.4,16.26,16.26,0,0,0-5.35.61A4,4,0,0,0,3.11,7.65a16.41,16.41,0,0,0-.87,2.51c-.3,1.15-.77,1.72-1.42,1.72A.7.7,0,0,1,.2,11.6a1.44,1.44,0,0,1-.2-.84A7.55,7.55,0,0,1,.12,10c.35-2,.6-4,.75-6a3.78,3.78,0,0,1,.38-1.73,1.14,1.14,0,0,1,1-.36c.36,0,1.49.07,3.4.21S9.24,2.29,10.78,2.29Zm-9,5.6h.2a5.31,5.31,0,0,1,1.6-2.36A8.74,8.74,0,0,1,6.65,4V3.86l-.3,0c-.46,0-.77-.07-.92-.07a3.73,3.73,0,0,0-2.78.93,4,4,0,0,0-.91,2.86ZM14.39,4.11l-.15.17a2.64,2.64,0,0,1,.73.81,2.08,2.08,0,0,1,.25,1V30.38a10.77,10.77,0,0,1-.42,3.3,2.44,2.44,0,0,1-1.13,1.61l.1.2a2.73,2.73,0,0,0,2-1.59,10.5,10.5,0,0,0,.58-4.12V9.26a11.24,11.24,0,0,0-.43-3.83A2.32,2.32,0,0,0,14.39,4.11Zm12.85-.2v.3a6.63,6.63,0,0,1,3.05.71,6.33,6.33,0,0,1,2.21,2.2h.15a3.76,3.76,0,0,0-.84-2.54,3.38,3.38,0,0,0-2.48-.77l-.9,0Z"/><path class="cls-1" d="M44.48,9.11V19.22a16.91,16.91,0,0,1,3.93-2.86,8.5,8.5,0,0,1,3.76-.92,6.34,6.34,0,0,1,5.55,2.63Q59.57,20.7,59.57,26V31.4a9.58,9.58,0,0,0,.25,2.65,2.57,2.57,0,0,0,.87,1.29,4.58,4.58,0,0,0,1.55.71c.68.19,1,.52,1,1a.76.76,0,0,1-.28.66,1.36,1.36,0,0,1-.84.22c-.16,0-.76,0-1.79-.13s-2-.12-2.82-.12c-1.57,0-3.15.07-4.73.22l-.52,0a.85.85,0,0,1-.6-.24.8.8,0,0,1-.25-.59c0-.33.27-.65.79-1a4.64,4.64,0,0,0,1.08-.81A2.57,2.57,0,0,0,54,34.17a10.79,10.79,0,0,0,.18-2.37v-5q0-4.26-1.19-6.09a4.28,4.28,0,0,0-3.86-1.83,5,5,0,0,0-3.48,1.08,4.27,4.27,0,0,0-1.15,3.25V31.4a8.66,8.66,0,0,0,.28,2.68,2.62,2.62,0,0,0,1,1.26,6.29,6.29,0,0,0,1.86.71c.8.19,1.2.52,1.2,1a.72.72,0,0,1-.34.65,1.64,1.64,0,0,1-.93.23c-.28,0-1,0-2.12-.13s-2.11-.12-2.94-.12c-1.66,0-3.26.07-4.8.22l-.45,0a1,1,0,0,1-.66-.23.73.73,0,0,1-.26-.6c0-.21.44-.63,1.33-1.24A3.59,3.59,0,0,0,39,32.67V8a8.72,8.72,0,0,0-.21-2.42,1.8,1.8,0,0,0-.76-.94,3.51,3.51,0,0,0-1.44-.32c-.7-.05-1-.32-1-.8s.53-.87,1.59-1.07a18.85,18.85,0,0,0,2.69-.67A22.11,22.11,0,0,0,42.5.71,7.14,7.14,0,0,1,44,.05a.58.58,0,0,1,.51.31,1.75,1.75,0,0,1,.18.86c0,.12,0,.43,0,1Q44.47,5.75,44.48,9.11ZM39.17,4.73l-.2,0a3.44,3.44,0,0,1,.71,1.28,9.15,9.15,0,0,1,.21,2.33V32a8.77,8.77,0,0,1-.26,2.26A3.08,3.08,0,0,1,39,35.69l.15,0a2.93,2.93,0,0,0,1.5-1.38,5.37,5.37,0,0,0,.49-2.47V9.16c0-.18,0-.36,0-.53s0-.27,0-.29A5.19,5.19,0,0,0,40.63,6,2.74,2.74,0,0,0,39.17,4.73Zm13,14.17-.1.1a5.48,5.48,0,0,1,2.39,3.1,29.36,29.36,0,0,1,.67,7.78,23.2,23.2,0,0,1-.25,3.93,3.74,3.74,0,0,1-.82,2l.1.1a2.4,2.4,0,0,0,1.58-1.66,14.42,14.42,0,0,0,.46-4.34q0-5.73-.87-7.87A5.62,5.62,0,0,0,52.22,18.9Z"/><path class="cls-1" d="M83.15,25.38h-11a3.45,3.45,0,0,0-1.68.23c-.21.16-.32.55-.32,1.16a8.34,8.34,0,0,0,2.27,5.75A7.08,7.08,0,0,0,77.89,35a8.27,8.27,0,0,0,4.4-1.33,12.68,12.68,0,0,1,2.38-1.34.53.53,0,0,1,.41.16.91.91,0,0,1,.14.57q0,1.49-3.35,3.42a14.25,14.25,0,0,1-7.24,1.93,9,9,0,0,1-6.92-3A10.73,10.73,0,0,1,65,27.89a13.39,13.39,0,0,1,3-8.91,9.3,9.3,0,0,1,7.46-3.54,9.66,9.66,0,0,1,6.88,2.68,8,8,0,0,1,2.86,5.94c0,.58-.1.94-.29,1.09A3.52,3.52,0,0,1,83.15,25.38ZM69.78,18.65l-.2-.1a15.06,15.06,0,0,0-2.83,4.31,11.73,11.73,0,0,0-1,4.61A10.6,10.6,0,0,0,68,34.3a10,10,0,0,0,6.1,3.53v-.15a10.83,10.83,0,0,1-5.24-4A11.28,11.28,0,0,1,67,27.17a14.14,14.14,0,0,1,.67-4.32A16.83,16.83,0,0,1,69.78,18.65Zm5.75,5.26a12,12,0,0,0,3.29-.28,1.24,1.24,0,0,0,.79-1.34,5.07,5.07,0,0,0-1.39-3.65,4.63,4.63,0,0,0-3.49-1.46,4.13,4.13,0,0,0-3.32,1.62,6.06,6.06,0,0,0-1.33,4,.94.94,0,0,0,.38.89,3.37,3.37,0,0,0,1.51.23Zm2.91-6.63-.2.2A7.58,7.58,0,0,1,80,19.64a4.79,4.79,0,0,1,.63,2.27c0,.1,0,.27,0,.5s0,.41,0,.53,0,.4.13.46a1.27,1.27,0,0,0,.5.11.55.55,0,0,0,.47-.26,1.25,1.25,0,0,0,.17-.71A5.33,5.33,0,0,0,81,19.59,7.06,7.06,0,0,0,78.44,17.28Z"/><path class="cls-1" d="M106.23,30.9v-21a9.13,9.13,0,0,0-.47-3.49A3.76,3.76,0,0,0,104,4.68a6.24,6.24,0,0,0-2.05-.6c-.94-.15-1.41-.49-1.41-1a1,1,0,0,1,.4-.85,1.66,1.66,0,0,1,1.07-.32c.15,0,.8.08,2,.23a23.83,23.83,0,0,0,3.25.24q2.27,0,5.79-.24c2.35-.15,4-.23,4.82-.23q9.8,0,15,4.23t5.26,12.1a19,19,0,0,1-5.82,14.19,20.13,20.13,0,0,1-14.68,5.69c-.64,0-1.7-.07-3.17-.2s-2.62-.2-3.45-.2a68.14,68.14,0,0,0-7.62.37l-.4,0a1.3,1.3,0,0,1-.81-.24.73.73,0,0,1-.31-.61c0-.52.5-1,1.49-1.47.37-.17.65-.31.85-.42a3.48,3.48,0,0,0,1.52-1.63A6.91,6.91,0,0,0,106.23,30.9ZM104.91,4v.22A3.71,3.71,0,0,1,106.68,6a7.83,7.83,0,0,1,.52,3.23V29.56a12.92,12.92,0,0,1-.42,3.78,6.75,6.75,0,0,1-1.39,2.39v.15a4.26,4.26,0,0,0,2.25-2.05,13.52,13.52,0,0,0,.64-5.07V9.59a7.5,7.5,0,0,0-.78-3.84A4,4,0,0,0,104.91,4Zm7.5,24.28q0,4.6,1.24,6c.83.9,2.35,1.35,4.54,1.35A12.56,12.56,0,0,0,128,31.44q3.72-4.14,3.71-11.09,0-7.19-4-11.71a13.24,13.24,0,0,0-10.41-4.53c-2,0-3.26.29-3.92.86s-1,1.87-1,3.9Zm10-24.83,0,.25a13.86,13.86,0,0,1,7.45,6.13,19.88,19.88,0,0,1,2.78,10.6,19.24,19.24,0,0,1-1.56,7.9A14.08,14.08,0,0,1,126.53,34l.12.2a14.13,14.13,0,0,0,5.52-5.74A18.54,18.54,0,0,0,134,20a18.26,18.26,0,0,0-3.18-10.74A13.85,13.85,0,0,0,122.42,3.46Z"/><path class="cls-1" d="M159.23,24.43v7.94a4.47,4.47,0,0,0,.31,2.22c.2.25.67.37,1.38.37a3.12,3.12,0,0,0,.52-.05l.5,0a.72.72,0,0,1,.5.21.65.65,0,0,1,.22.47c0,.49-.5,1-1.5,1.61a6.06,6.06,0,0,1-3.1.88,3,3,0,0,1-1.89-.74,6.22,6.22,0,0,1-1.58-2.1,18.14,18.14,0,0,1-4.44,2.37,13.08,13.08,0,0,1-4.47.79,4.36,4.36,0,0,1-3.36-1.28,5.13,5.13,0,0,1-1.2-3.63A6,6,0,0,1,144,28.19q2.88-1.95,9.87-3.21,0-.18,0-.51c0-.23,0-.4,0-.51a7.79,7.79,0,0,0-1.26-4.88,4.54,4.54,0,0,0-3.82-1.6,3,3,0,0,0-2,.5,2.47,2.47,0,0,0-.54,1.84v.58a3.28,3.28,0,0,1-.08.8,1.14,1.14,0,0,1-.22.47,4.08,4.08,0,0,1-1.4.67,6.45,6.45,0,0,1-2,.35,1.29,1.29,0,0,1-1-.28,2.05,2.05,0,0,1-.23-1.22q0-2.16,2.62-4a11.1,11.1,0,0,1,6.39-1.79,11.75,11.75,0,0,1,4.35.76,8.29,8.29,0,0,1,3.2,2.2,4.33,4.33,0,0,1,.94,1.82,16.34,16.34,0,0,1,.28,3.59Zm-14,4.11-.2-.25a6.14,6.14,0,0,0-2.25,2.12,5.47,5.47,0,0,0-.77,2.88,4.73,4.73,0,0,0,1.09,3.23,3.41,3.41,0,0,0,2.7,1.26c.13,0,.3,0,.5,0l.77-.11v-.15a3.45,3.45,0,0,1-2.8-1.32,5.21,5.21,0,0,1-1.09-3.44,5,5,0,0,1,2-4.18ZM146,17.43l-.15-.15a5.45,5.45,0,0,0-2.41,1.63,3.5,3.5,0,0,0-.95,2.18.91.91,0,0,0,.12.49.37.37,0,0,0,.32.18,1.44,1.44,0,0,0,.68-.14.48.48,0,0,0,.25-.43v-.55a3,3,0,0,1,.56-1.7A5.46,5.46,0,0,1,146,17.43Zm7.89,9.07a13.17,13.17,0,0,0-5.56,2.13,4.4,4.4,0,0,0-1.71,3.64,3,3,0,0,0,.77,2.22,3.26,3.26,0,0,0,2.34.75,5.34,5.34,0,0,0,3.2-.74c.64-.49,1-1.57,1-3.25Zm-2.07-9.59-.12.27a5.31,5.31,0,0,1,2.42,2.9,21.09,21.09,0,0,1,.69,6.42V32a7.45,7.45,0,0,0,.68,3.47,3.72,3.72,0,0,0,2.09,1.79l0-.23a4,4,0,0,1-1.39-1.79,10,10,0,0,1-.41-3.33c0-.7,0-1.76,0-3.18s.05-2.51.05-3.27c0-2.86-.3-4.86-.91-6A5.29,5.29,0,0,0,151.85,16.91Z"/><path class="cls-1" d="M172.6,19.67V31.4a9.72,9.72,0,0,0,.25,2.69,2.42,2.42,0,0,0,.87,1.25,4.58,4.58,0,0,0,1.58.71c.69.19,1,.52,1,1a.75.75,0,0,1-.3.65,1.35,1.35,0,0,1-.84.23c-.19,0-.78,0-1.78-.13s-1.92-.12-2.75-.12c-1.66,0-3.27.07-4.81.22l-.45,0a1,1,0,0,1-.66-.23.76.76,0,0,1-.26-.6c0-.21.44-.63,1.33-1.24a3.59,3.59,0,0,0,1.33-3.19V22.84a8.58,8.58,0,0,0-.21-2.41,1.85,1.85,0,0,0-.76-.91,3.47,3.47,0,0,0-1.44-.32c-.7-.05-1-.32-1-.8s.52-.88,1.55-1.07a17,17,0,0,0,2.69-.67,21.13,21.13,0,0,0,2.8-1.17c.89-.45,1.35-.67,1.38-.67a.51.51,0,0,1,.46.28,2,2,0,0,1,.14.86c0,.29,0,.64,0,1.07s-.05.72-.05.85ZM169.83,2.89c.39,0,1,.56,2,1.69a5,5,0,0,1,1.38,2.49,4.38,4.38,0,0,1-1.42,2.38c-.94,1-1.62,1.56-2,1.56s-1.19-.51-2.07-1.52a4.38,4.38,0,0,1-1.34-2.27,5.17,5.17,0,0,1,1.51-2.56C168.83,3.48,169.5,2.89,169.83,2.89Zm-2.64,16.23v.2a2.91,2.91,0,0,1,.71,1.26,8.79,8.79,0,0,1,.22,2.26v8a18.28,18.28,0,0,1-.22,3.38,3.69,3.69,0,0,1-.71,1.6l.05.15a3.32,3.32,0,0,0,1.64-1.44,6.36,6.36,0,0,0,.46-2.74V23.28a6.1,6.1,0,0,0-.5-2.7A3.1,3.1,0,0,0,167.19,19.12ZM170,4.48l-.33-.32-1.94,2.31a2.4,2.4,0,0,0-.2.33.76.76,0,0,0,0,.27,1,1,0,0,0,0,.33,2.36,2.36,0,0,0,.15.25L169.83,10l.73-.83L168.51,7Z"/><path class="cls-1" d="M186.52,9.16V31.4a9.58,9.58,0,0,0,.25,2.65,2.57,2.57,0,0,0,.87,1.29,4.61,4.61,0,0,0,1.54.71c.67.19,1,.52,1,1a.78.78,0,0,1-.27.66,1.35,1.35,0,0,1-.85.22c-.15,0-.74,0-1.77-.13s-2-.12-2.81-.12c-1.58,0-3.14.07-4.69.22l-.52,0a1,1,0,0,1-.67-.22.64.64,0,0,1-.25-.53c0-.25.46-.71,1.38-1.37a3.54,3.54,0,0,0,1.38-3.09V8a9.82,9.82,0,0,0-.19-2.46,1.65,1.65,0,0,0-.68-.9,3,3,0,0,0-1.3-.32c-.63,0-.94-.3-.94-.75s.56-1,1.67-1.14a15.51,15.51,0,0,0,2.42-.6,15.31,15.31,0,0,0,2.39-1.1A5.19,5.19,0,0,1,186.12,0a.63.63,0,0,1,.5.26,1.13,1.13,0,0,1,.2.69s0,.93-.15,2.76S186.52,7.35,186.52,9.16Zm-5.26-4.48,0,.1a3.31,3.31,0,0,1,.71,1.28,9,9,0,0,1,.22,2.33V32a8.75,8.75,0,0,1-.27,2.26,3.08,3.08,0,0,1-.66,1.41l0,.09a3.05,3.05,0,0,0,1.54-1.4,5.34,5.34,0,0,0,.51-2.5V8.34a5.09,5.09,0,0,0-.46-2.41A2.9,2.9,0,0,0,181.26,4.68Z"/><path class="cls-1" d="M199.07,20.79l4.48,8.87a8,8,0,0,0,.56,1,.5.5,0,0,0,.36.23c.12,0,.3-.14.54-.43a3,3,0,0,0,.53-.91L208,23a9.19,9.19,0,0,0,.44-1.5,7.77,7.77,0,0,0,.14-1.46c0-.63-.4-1.09-1.2-1.37a.33.33,0,0,1-.12-.05,5.5,5.5,0,0,0-.92-.5c-.65-.3-1-.65-1-1.07a.77.77,0,0,1,.35-.71,2.43,2.43,0,0,1,1.17-.21,9.88,9.88,0,0,1,1.51.18,11,11,0,0,0,1.61.17,8.93,8.93,0,0,0,1.62-.17,8.28,8.28,0,0,1,1-.18,1.33,1.33,0,0,1,.82.23.7.7,0,0,1,.3.59c0,.2-.32.52-1,1a5,5,0,0,0-1.64,2.36L200.86,46a2,2,0,0,1-.87,1.08,4.09,4.09,0,0,1-1.79.29,2.72,2.72,0,0,1-1-.13.48.48,0,0,1-.27-.46,1.9,1.9,0,0,1,.4-1l.2-.32,3.68-6a2.94,2.94,0,0,0,.3-.68,3,3,0,0,0,.1-.81,3.06,3.06,0,0,0-.09-.74,2.66,2.66,0,0,0-.26-.68l-8-16a6.59,6.59,0,0,0-2-2.57c-.74-.53-1.11-.87-1.11-1a.8.8,0,0,1,.3-.61,1,1,0,0,1,.7-.26l1.46.18a23,23,0,0,0,2.72.17c1.1,0,2.23-.06,3.4-.17l1.86-.18a1.16,1.16,0,0,1,.72.2.73.73,0,0,1,.25.62c0,.49-.47.83-1.42,1s-1.42.42-1.42.65a6.52,6.52,0,0,0,.1,1.25A3.32,3.32,0,0,0,199.07,20.79Zm-6.53-3a10.54,10.54,0,0,1,.84,1.17c.29.47.68,1.16,1.16,2.09l8.09,16,.62-1.22L195.71,21s0-.06-.08-.12Q194.15,18.09,192.54,17.78Zm15.39-.3,0,.25a2,2,0,0,1,1,.93,3.57,3.57,0,0,1,.32,1.59c0,.23,0,.43,0,.61s0,.36,0,.56l.2.1A11.23,11.23,0,0,0,210,20.1a3.05,3.05,0,0,0,.17-.88,1.52,1.52,0,0,0-.51-1.27A3.3,3.3,0,0,0,207.93,17.48Z"/><path class="cls-1" d="M262.82,10.53l-.3,25.88a5,5,0,0,1-.19,1.59c-.12.37-.3.55-.53.55-.55,0-1.31-.6-2.29-1.79-.22-.25-.39-.46-.53-.63L238,11.38a4.37,4.37,0,0,0-.72-.71,1.19,1.19,0,0,0-.52-.29q-.3,0-.45.54a6.41,6.41,0,0,0-.15,1.61v11.9a48.4,48.4,0,0,0,.37,7.52,5.37,5.37,0,0,0,1.3,2.86,4.82,4.82,0,0,0,2.64,1c1.28.2,1.91.61,1.91,1.2a1.13,1.13,0,0,1-.22.83,2,2,0,0,1-1.12.2l-1.91-.2a29.18,29.18,0,0,0-3.44-.2,34,34,0,0,0-3.68.2l-2.08.2a.86.86,0,0,1-.73-.32,1.63,1.63,0,0,1-.24-1c0-.19.46-.51,1.38-1a4.05,4.05,0,0,0,2-2.08,18,18,0,0,0,1-4.5,50.17,50.17,0,0,0,.46-6.85V11.5a17.54,17.54,0,0,0-.38-3.95,6.4,6.4,0,0,0-1.17-2.62,4.29,4.29,0,0,0-2.49-1c-1-.09-1.52-.42-1.54-1a1.25,1.25,0,0,1,.24-.86,1,1,0,0,1,.78-.26,6.93,6.93,0,0,1,1.4.21,6.83,6.83,0,0,0,1.36.21,20.32,20.32,0,0,0,2.64-.21,20.25,20.25,0,0,1,2.05-.21q1.33,0,2.91,1.89a3.21,3.21,0,0,1,.25.3l17.56,21.07a9,9,0,0,0,1.19,1.24,1.61,1.61,0,0,0,.85.45c.23,0,.4-.21.52-.62a7.22,7.22,0,0,0,.17-1.85v-13A15.12,15.12,0,0,0,259.76,7a4.06,4.06,0,0,0-1.52-2.1,8.56,8.56,0,0,0-2.83-1q-1.68-.31-1.68-1.08a.89.89,0,0,1,.29-.72,1.21,1.21,0,0,1,.83-.25c.32,0,1,.07,2.12.21a22.74,22.74,0,0,0,2.84.21c1,0,2.25-.07,3.67-.21s2.3-.21,2.65-.21a1.18,1.18,0,0,1,.8.21.94.94,0,0,1,.22.71c0,.46-.34.85-1,1.14a5.31,5.31,0,0,0-1.57,1,3,3,0,0,0-1.32,1.62A14.53,14.53,0,0,0,262.82,10.53Zm-28.56,19.4h-.15a17.79,17.79,0,0,1-.82,4,6.42,6.42,0,0,1-1.52,2.39l.1.2a3.84,3.84,0,0,0,2.12-1.4,4.45,4.45,0,0,0,.66-2.59,6,6,0,0,0-.08-.88C234.51,31.25,234.41,30.68,234.26,29.93ZM232.69,4v.2c.74.53,1.35,1,1.8,1.39a10.43,10.43,0,0,1,1.19,1.22l23.88,28.42a2,2,0,0,0,.36.36.45.45,0,0,0,.23.09.2.2,0,0,0,.19-.15,1.76,1.76,0,0,0,.09-.45,2.24,2.24,0,0,0-.13-.82,2.91,2.91,0,0,0-.49-.83L238.49,8.24a18.3,18.3,0,0,0-3-3A9,9,0,0,0,232.69,4Zm25.5-.4-.13.2a3.26,3.26,0,0,1,1.66,1.32A10.54,10.54,0,0,1,260.93,8h.25c0-.16,0-.38.05-.64,0-.42,0-.69,0-.83a2.92,2.92,0,0,0-.7-2.16A3.8,3.8,0,0,0,258.19,3.56Z"/><path class="cls-1" d="M281.57,15.44a12.09,12.09,0,0,1,8.59,3.09,10.39,10.39,0,0,1,3.31,8A11.49,11.49,0,0,1,290,35.12a12.05,12.05,0,0,1-8.79,3.38,11.25,11.25,0,0,1-8.2-3.16,10.76,10.76,0,0,1-3.23-8,11.47,11.47,0,0,1,3.44-8.44A11.32,11.32,0,0,1,281.57,15.44Zm-6.27,2.91a11.5,11.5,0,0,0-3.38,4,10.88,10.88,0,0,0-1.21,5,10.24,10.24,0,0,0,2.34,6.83,10.82,10.82,0,0,0,6.43,3.58l.17-.2a10.7,10.7,0,0,1-5.69-4,11.42,11.42,0,0,1-2-6.82,10.33,10.33,0,0,1,.86-4.16,15.8,15.8,0,0,1,2.73-4.06ZM281,17.28a5.43,5.43,0,0,0-4.4,1.86A7.93,7.93,0,0,0,275,24.43a16.73,16.73,0,0,0,2.1,8.81q2.1,3.46,5.39,3.47a5.27,5.27,0,0,0,4.27-1.86,7.71,7.71,0,0,0,1.56-5.12,17.29,17.29,0,0,0-2.09-8.94Q284.13,17.28,281,17.28Zm2.59-.3a10.61,10.61,0,0,1,4.26,4.8,16.94,16.94,0,0,1,1.52,7.33,11.71,11.71,0,0,1-.35,3.06,9,9,0,0,1-1.09,2.44l.14.3a10.19,10.19,0,0,0,1.84-3.28,11.55,11.55,0,0,0,.68-3.79,12.8,12.8,0,0,0-1.8-6.85,10.43,10.43,0,0,0-5.05-4.23Z"/><path class="cls-1" d="M304.53,16.26l-.15,4.14a25.28,25.28,0,0,1,3.09-3.73,3.66,3.66,0,0,1,2.17-1.23,4.08,4.08,0,0,1,2.57,1.36,3.65,3.65,0,0,1,1.46,2.37,5.46,5.46,0,0,1-.91,2.5c-.61,1-1.14,1.56-1.6,1.56a4.27,4.27,0,0,1-1.72-1.07,4,4,0,0,0-2.34-1.07A2.19,2.19,0,0,0,305,22.36a9.1,9.1,0,0,0-.66,4v5a8.59,8.59,0,0,0,.29,2.68,2.6,2.6,0,0,0,1,1.26,6.36,6.36,0,0,0,1.87.71c.8.19,1.19.52,1.19,1a.73.73,0,0,1-.33.65,1.7,1.7,0,0,1-.94.23c-.28,0-1,0-2.11-.13s-2.11-.12-2.94-.12c-1.66,0-3.26.07-4.81.22l-.45,0a1,1,0,0,1-.66-.23.76.76,0,0,1-.26-.6c0-.21.45-.63,1.34-1.24a3.62,3.62,0,0,0,1.33-3.19V22.84a8.58,8.58,0,0,0-.21-2.41,1.9,1.9,0,0,0-.76-.91,3.57,3.57,0,0,0-1.45-.32c-.69-.05-1-.32-1-.8s.51-.85,1.54-1.07a18.28,18.28,0,0,0,2.74-.72c.9-.32,1.79-.68,2.68-1.1a8.71,8.71,0,0,1,1.5-.62.66.66,0,0,1,.4.16.46.46,0,0,1,.2.34Zm-5.6,2.86-.1.15a2.41,2.41,0,0,1,.82,1.31,10.06,10.06,0,0,1,.25,2.6v8.7a10.07,10.07,0,0,1-.2,2.35,4,4,0,0,1-.67,1.36l.1.14a3.28,3.28,0,0,0,1.59-1.41,6.71,6.71,0,0,0,.45-2.87V23.86a7.81,7.81,0,0,0-.5-3.29A3.08,3.08,0,0,0,298.93,19.12Zm8,.85v.15a10.33,10.33,0,0,1,4,1.64.45.45,0,0,0,.38-.19.88.88,0,0,0,.15-.53q0-.45-1-.93a4.13,4.13,0,0,0-1.9-.49,3.4,3.4,0,0,0-.69.08C307.74,19.75,307.4,19.84,307,20Z"/><path class="cls-1" d="M323.41,11.31v3.93a1.18,1.18,0,0,0,.16.75,1.26,1.26,0,0,0,.81.17H327a2.71,2.71,0,0,0,1.5-.48,4.46,4.46,0,0,1,.81-.49.41.41,0,0,1,.33.15.62.62,0,0,1,.12.4,3,3,0,0,1-.67,2.09,2.5,2.5,0,0,1-1.92.72h-2.86a1,1,0,0,0-.72.19,1,1,0,0,0-.2.73V31a7.37,7.37,0,0,0,.55,3.51,2.09,2.09,0,0,0,1.94.88,6,6,0,0,0,2.21-.44,6.41,6.41,0,0,1,1.37-.44.78.78,0,0,1,.51.15.5.5,0,0,1,.19.43c0,.64-.74,1.37-2.23,2.16a9.85,9.85,0,0,1-4.74,1.2c-1.93,0-3.28-.48-4-1.43S318,34.21,318,31.45V19.67a1.37,1.37,0,0,0-.2-.84.7.7,0,0,0-.62-.28h-1.07a1.51,1.51,0,0,1-.81-.15.53.53,0,0,1-.21-.47c0-.23.53-.83,1.61-1.81a35.38,35.38,0,0,0,2.92-3c.52-.6,1.09-1.33,1.72-2.19s1.16-1.37,1.49-1.37a.49.49,0,0,1,.44.21,1.18,1.18,0,0,1,.14.63Zm-5.93,5.35h.42a3.17,3.17,0,0,0,2.51-1,6.56,6.56,0,0,0,1.25-3.28l-.2-.05a20.5,20.5,0,0,1-1.88,2.36A17.75,17.75,0,0,1,317.48,16.66Zm2.61,3.83a2,2,0,0,1,0-.26,1.78,1.78,0,0,0,0-.31.61.61,0,0,0-.12-.41.52.52,0,0,0-.4-.14.67.67,0,0,0-.6.22,2.44,2.44,0,0,0-.14,1.1v11c0,2.19.29,3.7.88,4.53a4.74,4.74,0,0,0,3.35,1.6v-.15a3.94,3.94,0,0,1-2.36-1.82,9.35,9.35,0,0,1-.66-4.11Z"/><path class="cls-1" d="M340,9.11V19.22A17,17,0,0,1,344,16.36a8.44,8.44,0,0,1,3.76-.92,6.34,6.34,0,0,1,5.55,2.63q1.84,2.63,1.84,7.88V31.4a9.58,9.58,0,0,0,.25,2.65,2.7,2.7,0,0,0,.87,1.29,4.74,4.74,0,0,0,1.56.71c.67.19,1,.52,1,1a.77.77,0,0,1-.29.66,1.32,1.32,0,0,1-.83.22c-.17,0-.77,0-1.8-.13s-2-.12-2.81-.12c-1.58,0-3.15.07-4.73.22l-.52,0a.81.81,0,0,1-.6-.24.76.76,0,0,1-.25-.59c0-.33.26-.65.78-1a4.52,4.52,0,0,0,1.09-.81,2.47,2.47,0,0,0,.68-1.17,10.05,10.05,0,0,0,.19-2.37v-5q0-4.26-1.2-6.09a4.26,4.26,0,0,0-3.86-1.83,4.92,4.92,0,0,0-3.47,1.08A4.27,4.27,0,0,0,340,23.18V31.4a8.59,8.59,0,0,0,.29,2.68,2.6,2.6,0,0,0,1,1.26,6.36,6.36,0,0,0,1.87.71c.8.19,1.19.52,1.19,1a.73.73,0,0,1-.33.65,1.7,1.7,0,0,1-.94.23c-.28,0-1,0-2.11-.13s-2.11-.12-2.94-.12c-1.66,0-3.26.07-4.81.22l-.45,0a1,1,0,0,1-.66-.23.76.76,0,0,1-.26-.6c0-.21.45-.63,1.34-1.24a3.62,3.62,0,0,0,1.33-3.19V8a8.72,8.72,0,0,0-.21-2.42,1.84,1.84,0,0,0-.76-.94,3.57,3.57,0,0,0-1.45-.32c-.69-.05-1-.32-1-.8s.53-.87,1.59-1.07a19.2,19.2,0,0,0,2.69-.67A22,22,0,0,0,338.06.71a7.63,7.63,0,0,1,1.53-.66.56.56,0,0,1,.51.31,1.64,1.64,0,0,1,.19.86c0,.12,0,.43-.05,1Q340,5.75,340,9.11Zm-5.3-4.38-.2,0a3.44,3.44,0,0,1,.71,1.28,9.15,9.15,0,0,1,.21,2.33V32a9.23,9.23,0,0,1-.26,2.26,3.3,3.3,0,0,1-.66,1.41l.15,0a2.91,2.91,0,0,0,1.49-1.38,5.37,5.37,0,0,0,.5-2.47V9.16c0-.18,0-.36,0-.53s0-.27,0-.29A5.17,5.17,0,0,0,336.19,6,2.72,2.72,0,0,0,334.74,4.73ZM347.79,18.9l-.1.1a5.52,5.52,0,0,1,2.39,3.1,29.36,29.36,0,0,1,.67,7.78,23.2,23.2,0,0,1-.25,3.93,3.82,3.82,0,0,1-.82,2l.1.1a2.42,2.42,0,0,0,1.58-1.66,14.42,14.42,0,0,0,.46-4.34q0-5.73-.87-7.87A5.65,5.65,0,0,0,347.79,18.9Z"/><path class="cls-1" d="M368,20.79l3.34,8.62a3.25,3.25,0,0,0,.43.82q.24.3.42.3c.13,0,.29-.11.47-.32a6.7,6.7,0,0,0,.6-.92l2.36-4.21a4.67,4.67,0,0,0,.41-1,3.9,3.9,0,0,0,.14-1,4,4,0,0,0-.06-.69,4.79,4.79,0,0,0-.19-.72l-.82-2.05A3,3,0,0,0,373.52,18c-.79-.4-1.18-.79-1.18-1.17a.62.62,0,0,1,.27-.49,1.1,1.1,0,0,1,.68-.21c.1,0,.56.06,1.39.18a17.9,17.9,0,0,0,2.34.17c.7,0,1.65-.06,2.87-.17s2.07-.18,2.59-.18a1,1,0,0,1,.68.21.78.78,0,0,1,.24.61c0,.49-.46.82-1.39,1s-1.38.38-1.38.56a8.39,8.39,0,0,0,.08,1.26,3.79,3.79,0,0,0,.3,1l3.31,8.32a3.38,3.38,0,0,0,.42.79c.15.19.28.28.4.28s.37-.24.57-.72c.09-.18.14-.32.18-.4l2.81-6.17a10.71,10.71,0,0,0,.56-1.55,5,5,0,0,0,.21-1.27,1.46,1.46,0,0,0-.32-1,1.81,1.81,0,0,0-1-.49,3.45,3.45,0,0,0-1-.61,1,1,0,0,1-.73-.91.72.72,0,0,1,.31-.68,2.4,2.4,0,0,1,1.16-.19,12.8,12.8,0,0,1,1.46.18,13.78,13.78,0,0,0,1.95.17,7,7,0,0,0,1.31-.17,6.23,6.23,0,0,1,1.11-.18.71.71,0,0,1,.79.82,1,1,0,0,1-.59.92,2.27,2.27,0,0,0-.78.65,3.37,3.37,0,0,0-.89,1.11c-.33.57-.8,1.53-1.4,2.88l-6.47,14.27a5.62,5.62,0,0,1-.64,1.13c-.19.24-.37.36-.53.36a.83.83,0,0,1-.59-.3,2.37,2.37,0,0,1-.48-.82l-4.24-10.51a1.29,1.29,0,0,0-.31-.48.49.49,0,0,0-.31-.19.47.47,0,0,0-.31.15,2.24,2.24,0,0,0-.39.55l-4.45,8.59-.08.15c-1,1.91-1.63,2.86-2,2.86a.81.81,0,0,1-.56-.3,2.75,2.75,0,0,1-.51-.82l-5.9-14.84a16.59,16.59,0,0,0-1-2.12,13.42,13.42,0,0,0-1.1-1.69,4.63,4.63,0,0,0-1-.59c-.51-.25-.76-.56-.76-.91a.78.78,0,0,1,.28-.63,1.12,1.12,0,0,1,.74-.24l1.37.18a21.47,21.47,0,0,0,2.66.17,26.47,26.47,0,0,0,2.67-.17q1.56-.18,2-.18a1,1,0,0,1,.69.19.88.88,0,0,1,.19.63c0,.47-.37.79-1.1,1s-1.1.39-1.1.6a6.75,6.75,0,0,0,.09,1.18A8.61,8.61,0,0,0,368,20.79Zm-6.1-3-.15.2a7.07,7.07,0,0,1,.89,1.11,8.09,8.09,0,0,1,.73,1.4l5.88,14.4a2.06,2.06,0,0,0,.1.25q.35.84.69.84a.41.41,0,0,0,.34-.18.7.7,0,0,0,.14-.41,3.4,3.4,0,0,0-.11-.79,7.65,7.65,0,0,0-.37-1l-4.78-11.3a14,14,0,0,0-1.67-3.19A4.52,4.52,0,0,0,361.88,17.78Zm13.05,0-.1.15a8,8,0,0,1,1.94,3.16l.05.1,5.66,14.2a7.81,7.81,0,0,0,.33.71.42.42,0,0,0,.24.21c.13,0,.26-.1.4-.3a1.14,1.14,0,0,0,.2-.62,1.89,1.89,0,0,0-.09-.53c-.06-.2-.18-.52-.36-1l-4.81-11.53c-.05-.11-.11-.28-.2-.5Q376.78,18.41,374.93,17.78Zm14.39-.35-.07.3a1.54,1.54,0,0,1,.8.79,4.23,4.23,0,0,1,.22,1.6c0,.12,0,.24,0,.37s0,.29,0,.45l.19-.05a11.06,11.06,0,0,0,.63-1.29,2.66,2.66,0,0,0,.17-.85,1,1,0,0,0-.42-.91A3.7,3.7,0,0,0,389.32,17.43Z"/><path class="cls-1" d="M414.42,25.38h-11a3.5,3.5,0,0,0-1.68.23c-.21.16-.31.55-.31,1.16a8.34,8.34,0,0,0,2.27,5.75A7.08,7.08,0,0,0,409.17,35a8.27,8.27,0,0,0,4.4-1.33,13.17,13.17,0,0,1,2.37-1.34.56.56,0,0,1,.42.16.92.92,0,0,1,.13.57c0,1-1.11,2.13-3.35,3.42a14.19,14.19,0,0,1-7.23,1.93,9,9,0,0,1-6.92-3,10.73,10.73,0,0,1-2.74-7.58A13.39,13.39,0,0,1,399.2,19a9.3,9.3,0,0,1,7.46-3.54,9.68,9.68,0,0,1,6.88,2.68,8,8,0,0,1,2.85,5.94c0,.58-.09.94-.28,1.09A3.58,3.58,0,0,1,414.42,25.38Zm-13.37-6.73-.2-.1A15.23,15.23,0,0,0,398,22.86a11.73,11.73,0,0,0-1,4.61,10.6,10.6,0,0,0,2.17,6.83,10,10,0,0,0,6.1,3.53v-.15a10.86,10.86,0,0,1-5.25-4,11.36,11.36,0,0,1-1.8-6.47,13.84,13.84,0,0,1,.67-4.32A17.13,17.13,0,0,1,401.05,18.65Zm5.76,5.26a12,12,0,0,0,3.28-.28,1.25,1.25,0,0,0,.8-1.34,5.11,5.11,0,0,0-1.39-3.65A4.66,4.66,0,0,0,406,17.18a4.15,4.15,0,0,0-3.33,1.62,6.12,6.12,0,0,0-1.33,4,.94.94,0,0,0,.39.89,3.35,3.35,0,0,0,1.5.23Zm2.91-6.63-.2.2a7.75,7.75,0,0,1,1.76,2.16,4.79,4.79,0,0,1,.63,2.27c0,.1,0,.27,0,.5s0,.41,0,.53,0,.4.13.46a1.21,1.21,0,0,0,.49.11.56.56,0,0,0,.48-.26,1.33,1.33,0,0,0,.17-.71,5.33,5.33,0,0,0-.87-2.95A7.06,7.06,0,0,0,409.72,17.28Z"/><path class="cls-1" d="M433.85,17.85l.2,2.59v.75a.54.54,0,0,1-.2.4.67.67,0,0,1-.47.17c-.32,0-.63-.31-.95-.94a10.36,10.36,0,0,0-.57-1,6.6,6.6,0,0,0-2.14-1.93,5.56,5.56,0,0,0-2.67-.66,3.52,3.52,0,0,0-2.28.69,2.24,2.24,0,0,0-.86,1.85,2.68,2.68,0,0,0,.76,2,11.86,11.86,0,0,0,3.4,1.83c.18.06.44.16.77.3,4.29,1.67,6.43,4.11,6.43,7.29a6.62,6.62,0,0,1-2.26,5.2,8.54,8.54,0,0,1-5.88,2,22.71,22.71,0,0,1-4.51-.57c-.82-.17-1.42-.29-1.82-.35a1,1,0,0,1-.6-.28.9.9,0,0,1-.17-.59.84.84,0,0,1,0-.1.43.43,0,0,0,0-.1.14.14,0,0,0-.05-.1l.15-1.75c0-1,0-2-.13-3.11,0-.23,0-.38,0-.45a1.15,1.15,0,0,1,.17-.72.79.79,0,0,1,.6-.2c.38,0,.7.42.95,1.25a10,10,0,0,0,1,2.31A7.35,7.35,0,0,0,425,36a4.79,4.79,0,0,0,2.69.83,3.75,3.75,0,0,0,2.68-1,3.37,3.37,0,0,0,1-2.57,3,3,0,0,0-.89-2.25A13.54,13.54,0,0,0,426.25,29a11.33,11.33,0,0,1-4.69-2.71,5.87,5.87,0,0,1-1.33-4,6.18,6.18,0,0,1,2.2-5,8.83,8.83,0,0,1,5.92-1.87,12.23,12.23,0,0,1,4,.49A2.13,2.13,0,0,1,433.85,17.85ZM421.2,31.75l-.3.13.05,3.95a1.52,1.52,0,0,0,.15.76.48.48,0,0,0,.45.27.74.74,0,0,0,.51-.15.58.58,0,0,0,.16-.45,8.18,8.18,0,0,0-.21-1.77C421.87,33.86,421.6,33,421.2,31.75Zm.87-12.63L422,19a5.28,5.28,0,0,0-.77,1.46A4.71,4.71,0,0,0,421,22a5.2,5.2,0,0,0,1,3.29,8.91,8.91,0,0,0,3.52,2.39l1.67.67q5,2,5,4.56a4.68,4.68,0,0,1-.05.59c0,.22-.1.54-.2,1l.15.09a5.25,5.25,0,0,0,.54-1.32,4.69,4.69,0,0,0,.18-1.27,3.47,3.47,0,0,0-1-2.46,8.38,8.38,0,0,0-3.07-1.87c-.32-.13-.76-.31-1.32-.52-3.84-1.51-5.75-3.41-5.75-5.7a5.5,5.5,0,0,1,.11-1.16A6.51,6.51,0,0,1,422.07,19.12Zm7.45-2.34V17a8.39,8.39,0,0,1,2.93,2.77l.08.07h.25v-.25a3,3,0,0,0-.56-2.14A5,5,0,0,0,429.52,16.78Z"/><path class="cls-1" d="M447.05,11.31v3.93a1.18,1.18,0,0,0,.16.75,1.26,1.26,0,0,0,.81.17h2.64a2.77,2.77,0,0,0,1.51-.48,4.22,4.22,0,0,1,.8-.49.41.41,0,0,1,.33.15.62.62,0,0,1,.12.4,3,3,0,0,1-.67,2.09,2.5,2.5,0,0,1-1.92.72H448a1,1,0,0,0-.72.19,1,1,0,0,0-.2.73V31a7.37,7.37,0,0,0,.55,3.51,2.09,2.09,0,0,0,1.94.88,6,6,0,0,0,2.21-.44,6.41,6.41,0,0,1,1.37-.44.78.78,0,0,1,.51.15.5.5,0,0,1,.19.43c0,.64-.74,1.37-2.23,2.16a9.85,9.85,0,0,1-4.74,1.2c-1.93,0-3.28-.48-4.05-1.43s-1.16-2.81-1.16-5.57V19.67a1.37,1.37,0,0,0-.2-.84.7.7,0,0,0-.62-.28h-1.07a1.51,1.51,0,0,1-.81-.15.53.53,0,0,1-.21-.47c0-.23.54-.83,1.61-1.81a35.38,35.38,0,0,0,2.92-3c.52-.6,1.09-1.33,1.72-2.19s1.16-1.37,1.49-1.37a.49.49,0,0,1,.44.21,1.18,1.18,0,0,1,.14.63Zm-5.93,5.35h.42a3.17,3.17,0,0,0,2.51-1,6.56,6.56,0,0,0,1.25-3.28l-.19-.05a21.69,21.69,0,0,1-1.89,2.36A17.75,17.75,0,0,1,441.12,16.66Zm2.62,3.83a1.55,1.55,0,0,1,0-.26,1.89,1.89,0,0,0,0-.31.61.61,0,0,0-.13-.41.52.52,0,0,0-.4-.14.67.67,0,0,0-.6.22,2.44,2.44,0,0,0-.14,1.1v11c0,2.19.29,3.7.88,4.53a4.76,4.76,0,0,0,3.35,1.6v-.15a3.88,3.88,0,0,1-2.35-1.82,9.35,9.35,0,0,1-.66-4.11Z"/><path class="cls-1" d="M473.79,25.38h-11a3.5,3.5,0,0,0-1.68.23c-.21.16-.31.55-.31,1.16a8.33,8.33,0,0,0,2.26,5.75A7.09,7.09,0,0,0,468.54,35a8.23,8.23,0,0,0,4.39-1.33,13,13,0,0,1,2.38-1.34.53.53,0,0,1,.41.16.91.91,0,0,1,.14.57q0,1.49-3.35,3.42a14.19,14.19,0,0,1-7.23,1.93,9,9,0,0,1-6.93-3,10.78,10.78,0,0,1-2.74-7.58A13.45,13.45,0,0,1,458.56,19,9.31,9.31,0,0,1,466,15.44a9.69,9.69,0,0,1,6.89,2.68,8,8,0,0,1,2.85,5.94c0,.58-.1.94-.29,1.09A3.52,3.52,0,0,1,473.79,25.38Zm-13.37-6.73-.2-.1a15.27,15.27,0,0,0-2.83,4.31,11.71,11.71,0,0,0-.95,4.61,10.65,10.65,0,0,0,2.16,6.83,10,10,0,0,0,6.1,3.53v-.15a10.88,10.88,0,0,1-5.24-4,11.36,11.36,0,0,1-1.8-6.47,13.84,13.84,0,0,1,.67-4.32A16.78,16.78,0,0,1,460.42,18.65Zm5.75,5.26a12,12,0,0,0,3.29-.28,1.25,1.25,0,0,0,.8-1.34,5.07,5.07,0,0,0-1.4-3.65,4.63,4.63,0,0,0-3.48-1.46,4.15,4.15,0,0,0-3.33,1.62,6.06,6.06,0,0,0-1.33,4,1,1,0,0,0,.38.89,3.37,3.37,0,0,0,1.51.23Zm2.92-6.63-.2.2a7.71,7.71,0,0,1,1.75,2.16,4.69,4.69,0,0,1,.64,2.27c0,.1,0,.27,0,.5s0,.41,0,.53,0,.4.12.46a1.27,1.27,0,0,0,.5.11.54.54,0,0,0,.47-.26,1.24,1.24,0,0,0,.18-.71,5.33,5.33,0,0,0-.87-2.95A7.15,7.15,0,0,0,469.09,17.28Z"/><path class="cls-1" d="M487.14,16.26,487,20.4a25.28,25.28,0,0,1,3.09-3.73,3.66,3.66,0,0,1,2.17-1.23,4.08,4.08,0,0,1,2.57,1.36,3.65,3.65,0,0,1,1.46,2.37,5.46,5.46,0,0,1-.91,2.5c-.61,1-1.14,1.56-1.61,1.56a4.34,4.34,0,0,1-1.71-1.07,4,4,0,0,0-2.34-1.07,2.19,2.19,0,0,0-2.06,1.27,9.1,9.1,0,0,0-.66,4v5a8.59,8.59,0,0,0,.29,2.68,2.6,2.6,0,0,0,1,1.26,6.36,6.36,0,0,0,1.87.71c.8.19,1.19.52,1.19,1a.73.73,0,0,1-.33.65,1.7,1.7,0,0,1-.94.23c-.28,0-1,0-2.11-.13s-2.11-.12-2.94-.12c-1.66,0-3.26.07-4.81.22l-.45,0a1,1,0,0,1-.66-.23.76.76,0,0,1-.26-.6c0-.21.45-.63,1.34-1.24a3.62,3.62,0,0,0,1.33-3.19V22.84a8.58,8.58,0,0,0-.21-2.41,2,2,0,0,0-.76-.91,3.57,3.57,0,0,0-1.45-.32c-.7-.05-1-.32-1-.8s.51-.85,1.54-1.07a18.28,18.28,0,0,0,2.74-.72c.89-.32,1.79-.68,2.68-1.1a8.71,8.71,0,0,1,1.5-.62.68.68,0,0,1,.4.16.46.46,0,0,1,.2.34Zm-5.6,2.86-.1.15a2.41,2.41,0,0,1,.82,1.31,10.52,10.52,0,0,1,.25,2.6v8.7a10.07,10.07,0,0,1-.2,2.35,4,4,0,0,1-.67,1.36l.1.14a3.28,3.28,0,0,0,1.59-1.41,6.71,6.71,0,0,0,.45-2.87V23.86a7.81,7.81,0,0,0-.5-3.29A3.08,3.08,0,0,0,481.54,19.12Zm8,.85v.15a10.33,10.33,0,0,1,4,1.64.46.46,0,0,0,.38-.19.88.88,0,0,0,.15-.53q0-.45-1-.93a4.14,4.14,0,0,0-1.91-.49,3.39,3.39,0,0,0-.68.08C490.35,19.75,490,19.84,489.58,20Z"/><path class="cls-1" d="M506.21,16.26l-.14,3a17.23,17.23,0,0,1,4-2.87,8.28,8.28,0,0,1,3.71-.91,6.28,6.28,0,0,1,5.52,2.63q1.83,2.63,1.83,7.88V31.4a9.1,9.1,0,0,0,.26,2.62,2.77,2.77,0,0,0,.91,1.32,4.58,4.58,0,0,0,1.55.71c.68.19,1,.52,1,1a.76.76,0,0,1-.28.66,1.34,1.34,0,0,1-.84.22c-.16,0-.76,0-1.79-.13s-2-.12-2.81-.12c-1.58,0-3.16.07-4.74.22l-.52,0a.85.85,0,0,1-.6-.24.8.8,0,0,1-.25-.59q0-.32,1.35-1.29A3.32,3.32,0,0,0,515.7,33V26.77q0-4.31-1.17-6.11a4.21,4.21,0,0,0-3.83-1.81,5,5,0,0,0-3.48,1.08,4.27,4.27,0,0,0-1.15,3.25V31.4a8.66,8.66,0,0,0,.28,2.68,2.62,2.62,0,0,0,1,1.26,6.29,6.29,0,0,0,1.86.71c.8.19,1.2.52,1.2,1a.72.72,0,0,1-.34.65,1.64,1.64,0,0,1-.93.23c-.28,0-1,0-2.12-.13s-2.11-.12-2.94-.12c-1.66,0-3.26.07-4.8.22l-.45,0a1,1,0,0,1-.66-.23.76.76,0,0,1-.26-.6c0-.21.44-.63,1.33-1.24a3.59,3.59,0,0,0,1.33-3.19V22.84a8.58,8.58,0,0,0-.21-2.41,1.85,1.85,0,0,0-.76-.91,3.51,3.51,0,0,0-1.44-.32c-.7-.05-1.05-.32-1.05-.8s.52-.85,1.55-1.07a18.45,18.45,0,0,0,2.73-.72c.9-.32,1.79-.68,2.68-1.1a8.63,8.63,0,0,1,1.51-.62.62.62,0,0,1,.4.18.44.44,0,0,1,.19.32Zm-5.75,2.86a3.51,3.51,0,0,1,.85,1.52,8.75,8.75,0,0,1,.27,2.34V31.7c0,.38,0,.79-.05,1.22v.23a5,5,0,0,1-.31,1.81,2.26,2.26,0,0,1-.81,1.15,2.73,2.73,0,0,0,1.83-1.42,9.3,9.3,0,0,0,.51-3.69V24a8.63,8.63,0,0,0-.49-3.48A2.83,2.83,0,0,0,500.46,19.12Zm12.43-.72a7,7,0,0,1,2.84,2.79,9,9,0,0,1,.89,4.24v6.45a11,11,0,0,1-.27,2.61,3.78,3.78,0,0,1-.8,1.67,2.7,2.7,0,0,0,1.83-2,23.94,23.94,0,0,0,.51-6.16c0-3.4-.37-5.76-1.1-7.06A5.62,5.62,0,0,0,512.89,18.4Z"/><path class="cls-1" d="M10,53.31v6.14a6.53,6.53,0,0,1,0,1,.18.18,0,0,1-.2.17.24.24,0,0,1-.17-.07l-.16-.19L3.26,53.31l-.08-.08a.13.13,0,0,0-.1,0c-.09,0-.14.11-.14.33V58.8l0,.52A1.07,1.07,0,0,0,3.2,60a1.65,1.65,0,0,0,.78.27q.24,0,.24.18a.13.13,0,0,1-.15.15l-.22,0-.64,0-.75,0H2.11a4.56,4.56,0,0,0-.54,0,1.66,1.66,0,0,1-.27,0c-.13,0-.2,0-.2-.13s.06-.13.2-.18a1.46,1.46,0,0,0,.83-.57,2.24,2.24,0,0,0,.22-1.15v-5a4.17,4.17,0,0,0-.41-2,1.51,1.51,0,0,0-1.16-.83c-.13,0-.2-.07-.2-.16s.06-.14.16-.14H2a.53.53,0,0,1,.37.21l6.73,7.63q.16.18.21.18c.05,0,.08-.06.08-.14V53.7L9.35,52A1.36,1.36,0,0,0,9,51.14a2.05,2.05,0,0,0-1-.39q-.21,0-.21-.18c0-.09.07-.13.21-.13a2,2,0,0,1,.31,0c.34,0,.79,0,1.36,0a4.48,4.48,0,0,0,.72,0l.36,0q.2,0,.21.15c0,.07-.05.11-.15.14a.88.88,0,0,0-.59.37A2.13,2.13,0,0,0,10,52v.79Z"/><path class="cls-1" d="M17.53,50.31a5.17,5.17,0,0,1,3.76,1.42,4.8,4.8,0,0,1,1.47,3.62,5.23,5.23,0,0,1-1.48,3.85,5.1,5.1,0,0,1-3.79,1.5,5.21,5.21,0,0,1-3.82-1.44,5,5,0,0,1-1.46-3.76,5.42,5.42,0,0,1,.38-2,4.79,4.79,0,0,1,1-1.66,5,5,0,0,1,1.74-1.12A6,6,0,0,1,17.53,50.31Zm-.47.48a3.39,3.39,0,0,0-2.7,1.14,4.5,4.5,0,0,0-1,3.08,5.57,5.57,0,0,0,1.28,3.74,3.93,3.93,0,0,0,3.14,1.52A3.57,3.57,0,0,0,20.58,59a4.51,4.51,0,0,0,1.11-3.14,5.17,5.17,0,0,0-1.33-3.64A4.24,4.24,0,0,0,17.06,50.79Z"/><path class="cls-1" d="M29.05,55.49l2,3,.24.35c.62.91,1.2,1.39,1.73,1.42l.23,0c.09,0,.13,0,.13.1s-.12.14-.33.2a2.63,2.63,0,0,1-.72.09,2.06,2.06,0,0,1-1.19-.36,4.5,4.5,0,0,1-1.06-1.18l-1.82-2.79-.11-.16a.6.6,0,0,0-.57-.3h-1l-.16,0c-.06,0-.09.11-.09.24v2.58a4.12,4.12,0,0,0,.06.87.8.8,0,0,0,.29.41,1.91,1.91,0,0,0,1,.32c.17,0,.26.07.27.16s-.07.15-.24.15l-.43,0q-.3,0-.93,0H25.3a4.85,4.85,0,0,0-.6,0l-.39,0c-.13,0-.19,0-.19-.15s.06-.12.19-.15a.93.93,0,0,0,.76-.53,4.62,4.62,0,0,0,.19-1.66V52.86l0-.76c0-.76-.26-1.19-.8-1.28l-.34,0c-.16,0-.23-.08-.23-.17s.08-.15.25-.15l.51,0,.65,0,1.15,0c.39,0,.73,0,1,0a4.17,4.17,0,0,1,2.54.64,2.17,2.17,0,0,1,.86,1.89A2.78,2.78,0,0,1,29.05,55.49Zm-2.15-.16h.83a2.1,2.1,0,0,0,1.51-.53,1.91,1.91,0,0,0,.55-1.45A2.27,2.27,0,0,0,29,51.6a2.7,2.7,0,0,0-1.91-.69,1,1,0,0,0-.59.14.67.67,0,0,0-.17.52V54.8a.7.7,0,0,0,.09.44A.66.66,0,0,0,26.9,55.33Z"/><path class="cls-1" d="M40.3,51.27H38.24c-.21,0-.35,0-.4.09a.66.66,0,0,0-.09.43v7.48a1,1,0,0,0,1,1c.17,0,.26.08.26.16s-.07.16-.21.16l-.36,0c-.09,0-.31,0-.66,0H36.64l-.52,0-.49,0c-.15,0-.22,0-.22-.16s.08-.12.24-.14a1.15,1.15,0,0,0,.76-.31,1.41,1.41,0,0,0,.2-.86V51.68a.53.53,0,0,0-.07-.34.59.59,0,0,0-.36-.07H34.23a1.26,1.26,0,0,0-.86.24,1.64,1.64,0,0,0-.41.9c-.05.19-.11.28-.2.27s-.13-.07-.13-.19a4,4,0,0,1,.08-.57,3.87,3.87,0,0,0,.11-.86.89.89,0,0,1,.08-.45c.05-.07.16-.1.33-.1h7.88c.27,0,.44,0,.49.09s.09.23.09.51a4.64,4.64,0,0,0,0,.63c0,.17,0,.29.05.36s-.05.22-.16.23-.14-.07-.17-.22a1.1,1.1,0,0,0-.31-.68A1.46,1.46,0,0,0,40.3,51.27Z"/><path class="cls-1" d="M45.39,55h4.32a.86.86,0,0,0,.41-.06c.06,0,.09-.12.09-.26V52.21A2.17,2.17,0,0,0,50,51.14a1.08,1.08,0,0,0-.72-.43c-.14,0-.21-.09-.21-.17s.07-.13.18-.13l.5,0c.32,0,.67,0,1,0a9.37,9.37,0,0,0,1.1,0l.27,0c.11,0,.17,0,.17.14s-.06.13-.17.15l-.3.07a.58.58,0,0,0-.38.32,1.28,1.28,0,0,0-.16.65v7.08a2,2,0,0,0,.22,1.09,1.14,1.14,0,0,0,.84.36c.16,0,.23.07.24.15s-.06.17-.21.17a2.12,2.12,0,0,1-.38,0,5.4,5.4,0,0,0-.73,0H50.22l-.35,0-.51,0c-.12,0-.18,0-.17-.14s.08-.14.25-.17c.51-.09.76-.51.76-1.25v-3c0-.23,0-.37-.06-.4a.9.9,0,0,0-.44-.06H45.39a1,1,0,0,0-.52.08c-.07.06-.1.2-.1.43v2.69A1.82,1.82,0,0,0,45,59.88a1.31,1.31,0,0,0,.9.38c.18,0,.28.08.28.18s-.07.15-.21.15l-.36,0a7.75,7.75,0,0,0-.88,0h-.62l-.48,0-.46,0-.46,0c-.12,0-.18,0-.18-.13s.06-.14.19-.17l.36-.09a.61.61,0,0,0,.44-.49,5.78,5.78,0,0,0,.12-1.43V52a1.44,1.44,0,0,0-.24-.93,1.36,1.36,0,0,0-.87-.38c-.14,0-.21-.07-.21-.16s.06-.15.19-.14l.44,0a10.54,10.54,0,0,0,1.34.07,7.32,7.32,0,0,0,1-.06l.31,0q.21,0,.21.15c0,.08-.06.13-.19.17a1.13,1.13,0,0,0-.66.35,1.41,1.41,0,0,0-.17.78v2.62a.91.91,0,0,0,.08.5C44.91,55,45.09,55,45.39,55Z"/><path class="cls-1" d="M61.3,54.87l1.47,3.48c.16.38.28.57.35.57s.14-.11.24-.33.09-.21.18-.41c.65-1.42,1.24-2.86,1.79-4.31a12.68,12.68,0,0,0,.83-2.57c0-.23-.2-.39-.62-.48-.23,0-.34-.13-.34-.23s.07-.15.21-.15h.13c.21,0,.5,0,.88,0a8.28,8.28,0,0,0,1,0l.35,0a.14.14,0,0,1,.16.16c0,.09-.07.16-.21.22a.78.78,0,0,0-.45.44l-.4.87q-.25.54-.78,1.77c-.36.87-.64,1.51-.83,1.94l-.88,2-.58,1.38-.35.8-.16.38-.11.22c-.13.27-.26.4-.38.4s-.21-.12-.31-.35l-1.82-4.24-1.84,4.36c-.08.21-.17.32-.27.31s-.26-.19-.42-.57l-3-7.24-.19-.49a7.14,7.14,0,0,0-.69-1.38,1.29,1.29,0,0,0-.75-.49l-.3-.07a.17.17,0,0,1-.16-.18c0-.11.07-.17.22-.17h.19a4.9,4.9,0,0,0,.73,0h.9l.62,0,.45,0c.14,0,.2.06.2.18a.18.18,0,0,1-.16.19c-.31.09-.46.23-.46.43a5.76,5.76,0,0,0,.53,1.58c.17.37.43,1,.79,1.9s.6,1.47.74,1.81l.72,1.58c.08.18.13.3.16.35l.09.16c0,.11.09.16.12.16s.09-.08.15-.23l0-.09,1.26-2.95-.18-.44-.66-1.53-.6-1.42a4.78,4.78,0,0,0-.53-1,.88.88,0,0,0-.58-.27c-.4-.05-.6-.14-.59-.26s.11-.15.31-.15h.29l1.42,0a6.79,6.79,0,0,0,.73,0l.32,0c.17,0,.25.06.25.17s-.08.15-.24.21a.49.49,0,0,0-.35.47,2.83,2.83,0,0,0,.26.9L61,54.05l.14-.34a8.15,8.15,0,0,0,.85-2.45c0-.22-.16-.36-.49-.42s-.35-.12-.35-.24.09-.14.26-.14h.28l.76,0a6.24,6.24,0,0,0,.71,0,2,2,0,0,1,.3,0c.15,0,.22.05.22.17s-.09.14-.26.19a.75.75,0,0,0-.4.27,6.36,6.36,0,0,0-.47,1Z"/><path class="cls-1" d="M70.75,51.65v3a.83.83,0,0,0,.06.41.66.66,0,0,0,.38.07h1.13A6.42,6.42,0,0,0,73.53,55a1,1,0,0,0,.51-.21,1.59,1.59,0,0,0,.22-.62c0-.12.08-.18.18-.17s.15.07.15.19,0,.09,0,.16a12.5,12.5,0,0,0-.07,1.3,8.65,8.65,0,0,0,0,.88,2,2,0,0,1,0,.21c0,.12,0,.18-.14.18a.17.17,0,0,1-.19-.16l0-.2a1,1,0,0,0-.35-.67,1.66,1.66,0,0,0-.89-.17H71.34a1,1,0,0,0-.48.07.32.32,0,0,0-.12.29v3c0,.41.07.67.22.77A2.36,2.36,0,0,0,72.1,60c1.92,0,3.15-.44,3.69-1.3.06-.08.11-.13.17-.13s.14.06.14.19a2,2,0,0,1-.54,1.13,2,2,0,0,1-1.63.79l-.57,0c-.93-.09-1.7-.13-2.31-.13a14.45,14.45,0,0,0-1.81.08,2.24,2.24,0,0,1-.38.06c-.16,0-.24-.06-.24-.16s.07-.14.19-.17l.28-.08c.35-.1.53-.44.53-1V52.5a3,3,0,0,0-.23-1.41,1,1,0,0,0-.9-.36c-.14,0-.21,0-.21-.14s.11-.2.33-.2a3.5,3.5,0,0,1,.49,0,22.62,22.62,0,0,0,2.52.12c.59,0,1.12,0,1.58,0l1-.06a4.64,4.64,0,0,0,.53,0l.29,0q.24,0,.24.21a1.49,1.49,0,0,1,0,.17c0,.06,0,.26-.06.58l0,.43a3.18,3.18,0,0,1-.07.53.17.17,0,0,1-.17.11c-.09,0-.14-.07-.14-.22V52a1.12,1.12,0,0,0-.09-.44.76.76,0,0,0-.56-.44A6.83,6.83,0,0,0,72.61,51H71.46a1,1,0,0,0-.58.11A.67.67,0,0,0,70.75,51.65Z"/><path class="cls-1" d="M80.32,50.31a3.48,3.48,0,0,1,1.33.23l.5.21.13,0a.27.27,0,0,0,.18-.07l.1-.09a.1.1,0,0,1,.08,0c.13,0,.19.11.19.36,0,.08,0,.33.09.74l.12.75c0,.16,0,.26,0,.3S83,53,82.92,53s-.16-.12-.24-.35a2.46,2.46,0,0,0-1.07-1.31,3.32,3.32,0,0,0-1.8-.52,1.94,1.94,0,0,0-1.32.47A1.5,1.5,0,0,0,78,52.42a1.72,1.72,0,0,0,.35,1.07A1.84,1.84,0,0,0,79,54a18.15,18.15,0,0,0,1.75.64q2.7.89,2.7,2.91a2.85,2.85,0,0,1-1,2.24,3.77,3.77,0,0,1-2.56.87,5.78,5.78,0,0,1-1.24-.16,3.24,3.24,0,0,1-1-.38.51.51,0,0,1-.18-.18,4.17,4.17,0,0,1-.13-.51l-.18-.67a3.93,3.93,0,0,1-.2-.94q0-.21.15-.21t.24.36a2.88,2.88,0,0,0,1.11,1.53,3.08,3.08,0,0,0,1.84.61A2.52,2.52,0,0,0,82,59.56a1.84,1.84,0,0,0,.7-1.44A1.73,1.73,0,0,0,82,56.75a7.18,7.18,0,0,0-1.9-.82,6.12,6.12,0,0,1-2.3-1.21A2.34,2.34,0,0,1,77.16,53a2.41,2.41,0,0,1,.89-1.93A3.38,3.38,0,0,1,80.32,50.31Z"/><path class="cls-1" d="M91.81,51.27H89.75a.61.61,0,0,0-.41.09c-.06.06-.08.2-.08.43v7.48a1,1,0,0,0,1,1c.17,0,.26.08.26.16s-.07.16-.21.16l-.35,0c-.1,0-.32,0-.67,0h-1.1l-.53,0-.49,0c-.14,0-.22,0-.22-.16s.08-.12.24-.14a1.2,1.2,0,0,0,.77-.31,1.42,1.42,0,0,0,.19-.86V51.68a.52.52,0,0,0-.08-.34.57.57,0,0,0-.36-.07H85.73a1.28,1.28,0,0,0-.86.24,1.71,1.71,0,0,0-.41.9c0,.19-.11.28-.2.27s-.13-.07-.13-.19a3.22,3.22,0,0,1,.09-.57,4.58,4.58,0,0,0,.11-.86.92.92,0,0,1,.07-.45.41.41,0,0,1,.33-.1h7.89a.8.8,0,0,1,.49.09,1,1,0,0,1,.08.51,3.21,3.21,0,0,0,0,.63c0,.17,0,.29,0,.36s0,.22-.15.23-.15-.07-.18-.22a1.05,1.05,0,0,0-.31-.68A1.42,1.42,0,0,0,91.81,51.27Z"/><path class="cls-1" d="M96.27,51.65v3a.83.83,0,0,0,.06.41.66.66,0,0,0,.38.07h1.12A6.46,6.46,0,0,0,99.05,55a1.13,1.13,0,0,0,.51-.21,1.47,1.47,0,0,0,.21-.62c0-.12.09-.18.19-.17s.14.07.14.19v.16a12.5,12.5,0,0,0-.07,1.3c0,.29,0,.59,0,.88,0,.1,0,.17,0,.21s0,.18-.14.18a.17.17,0,0,1-.19-.16l0-.2a1,1,0,0,0-.35-.67,1.7,1.7,0,0,0-.9-.17H96.86a1,1,0,0,0-.48.07.32.32,0,0,0-.12.29v3c0,.41.07.67.22.77a2.33,2.33,0,0,0,1.13.16c1.92,0,3.15-.44,3.69-1.3.06-.08.11-.13.17-.13s.13.06.13.19a2.3,2.3,0,0,1-2.16,1.92l-.57,0c-.93-.09-1.7-.13-2.31-.13a14.45,14.45,0,0,0-1.81.08l-.38.06c-.16,0-.24-.06-.24-.16s.07-.14.19-.17l.28-.08c.35-.1.53-.44.53-1V52.5a2.81,2.81,0,0,0-.24-1.41,1,1,0,0,0-.89-.36c-.14,0-.21,0-.21-.14s.11-.2.32-.2a3.52,3.52,0,0,1,.5,0,22.37,22.37,0,0,0,2.52.12c.59,0,1.12,0,1.58,0l1-.06a4.27,4.27,0,0,0,.52,0l.3,0q.24,0,.24.21a1.49,1.49,0,0,1,0,.17,3.77,3.77,0,0,0-.06.58l0,.43a2.8,2.8,0,0,1-.08.53.15.15,0,0,1-.16.11c-.09,0-.14-.07-.14-.22V52a1.12,1.12,0,0,0-.09-.44.76.76,0,0,0-.56-.44A6.89,6.89,0,0,0,98.13,51H97a1,1,0,0,0-.58.11A.67.67,0,0,0,96.27,51.65Z"/><path class="cls-1" d="M107.71,55.49l2,3,.23.35c.63.91,1.2,1.39,1.73,1.42l.24,0c.08,0,.12,0,.12.1s-.11.14-.33.2a2.63,2.63,0,0,1-.72.09,2,2,0,0,1-1.18-.36,4.51,4.51,0,0,1-1.07-1.18l-1.82-2.79-.1-.16a.62.62,0,0,0-.57-.3h-1l-.16,0c-.06,0-.09.11-.09.24v2.58a4.12,4.12,0,0,0,.06.87.77.77,0,0,0,.3.41,1.87,1.87,0,0,0,1,.32c.18,0,.27.07.27.16s-.07.15-.24.15l-.43,0q-.3,0-.93,0H104a4.62,4.62,0,0,0-.6,0l-.4,0q-.18,0-.18-.15c0-.08.06-.12.18-.15a1,1,0,0,0,.77-.53,4.94,4.94,0,0,0,.18-1.66v-6c0-.76-.27-1.19-.8-1.28l-.34,0c-.16,0-.24-.08-.24-.17s.08-.15.25-.15l.51,0,.65,0,1.15,0c.4,0,.74,0,1,0a4.19,4.19,0,0,1,2.54.64,2.2,2.2,0,0,1,.86,1.89A2.8,2.8,0,0,1,107.71,55.49Zm-2.16-.16h.83a2.13,2.13,0,0,0,1.52-.53,1.94,1.94,0,0,0,.55-1.45,2.27,2.27,0,0,0-.75-1.75,2.72,2.72,0,0,0-1.91-.69,1,1,0,0,0-.6.14.67.67,0,0,0-.16.52V54.8a.4.4,0,0,0,.52.53Z"/><path class="cls-1" d="M121.35,53.31v6.14a6.53,6.53,0,0,1,0,1,.18.18,0,0,1-.2.17.24.24,0,0,1-.17-.07l-.16-.19-6.17-7.06-.08-.08a.13.13,0,0,0-.1,0c-.09,0-.14.11-.14.33V58.8l0,.52a1.07,1.07,0,0,0,.24.67,1.65,1.65,0,0,0,.78.27q.24,0,.24.18a.13.13,0,0,1-.15.15l-.22,0-.64,0-.75,0h-.35a4.56,4.56,0,0,0-.54,0,1.66,1.66,0,0,1-.27,0c-.13,0-.19,0-.2-.13s.06-.13.2-.18a1.46,1.46,0,0,0,.83-.57,2.24,2.24,0,0,0,.22-1.15v-5a4.17,4.17,0,0,0-.41-2,1.51,1.51,0,0,0-1.16-.83c-.13,0-.2-.07-.2-.16s.06-.14.16-.14h1.3a.53.53,0,0,1,.37.21l6.73,7.63q.17.18.21.18s.08-.06.08-.14V53.7L120.7,52a1.36,1.36,0,0,0-.36-.88,2.05,2.05,0,0,0-1-.39q-.21,0-.21-.18c0-.09.07-.13.21-.13a2,2,0,0,1,.31,0c.34,0,.79,0,1.36,0a4.48,4.48,0,0,0,.72,0l.36,0q.19,0,.21.15c0,.07,0,.11-.15.14a.88.88,0,0,0-.59.37,2.13,2.13,0,0,0-.14,1v.79Z"/><path class="cls-1" d="M132.72,56.68h-2.65a1.54,1.54,0,0,0-.68.09,1.87,1.87,0,0,0-.35.59l-.48,1.08a3,3,0,0,0-.32,1.1.63.63,0,0,0,.17.5,1.56,1.56,0,0,0,.68.26c.14,0,.22.09.22.17s-.06.12-.2.12h-.25l-.7-.05H127l-.41,0c-.13,0-.2,0-.2-.14a.14.14,0,0,1,.13-.15l.27-.08a1,1,0,0,0,.39-.36,2.83,2.83,0,0,0,.41-.65l.22-.48,3.76-8.37c.06-.14.14-.21.21-.21s.15.07.2.21l3.15,8.07.16.39a3.76,3.76,0,0,0,.57,1.11,2,2,0,0,0,.93.34c.15,0,.22.09.22.18s-.08.12-.21.12l-.28,0q-.37,0-1.35,0a10.86,10.86,0,0,0-1.28,0l-.22,0c-.13,0-.19,0-.19-.15s.06-.13.18-.15l.23-.05a.45.45,0,0,0,.36-.5,5.56,5.56,0,0,0-.45-1.55l-.36-1a1.15,1.15,0,0,0-.24-.46A1,1,0,0,0,132.72,56.68Zm.09-1.18-1.15-2.9-.06-.15c-.06-.16-.12-.24-.19-.24s-.08,0-.12.14l-1.43,3.17a1,1,0,0,0-.09.27c0,.13.11.19.33.19h2.41c.25,0,.37-.06.37-.19a.45.45,0,0,0,0-.16Z"/><path class="cls-1" d="M146.22,53.31v6.14a6.53,6.53,0,0,1,0,1,.18.18,0,0,1-.2.17.22.22,0,0,1-.17-.07l-.16-.19-6.18-7.06-.07-.08a.14.14,0,0,0-.1,0c-.1,0-.14.11-.14.33V58.8l0,.52a1.13,1.13,0,0,0,.25.67,1.56,1.56,0,0,0,.78.27q.24,0,.24.18c0,.1-.05.15-.16.15l-.22,0-.63,0-.75,0h-.35a4.56,4.56,0,0,0-.54,0,1.66,1.66,0,0,1-.27,0c-.13,0-.2,0-.21-.13s.06-.13.21-.18a1.5,1.5,0,0,0,.83-.57,2.37,2.37,0,0,0,.21-1.15v-5a4.18,4.18,0,0,0-.4-2,1.54,1.54,0,0,0-1.16-.83c-.14,0-.2-.07-.2-.16s0-.14.16-.14h1.3a.49.49,0,0,1,.36.21l6.74,7.63q.16.18.21.18s.07-.06.08-.14V53.7L145.57,52a1.31,1.31,0,0,0-.37-.88,2,2,0,0,0-1-.39q-.21,0-.21-.18c0-.09.07-.13.21-.13a2.09,2.09,0,0,1,.31,0c.33,0,.79,0,1.35,0a4.62,4.62,0,0,0,.73,0l.36,0c.12,0,.19,0,.2.15s0,.11-.15.14a.88.88,0,0,0-.58.37,2.1,2.1,0,0,0-.15,1v1.27Z"/><path class="cls-1" d="M149.73,52.25a1.91,1.91,0,0,0-.25-1.08,1.09,1.09,0,0,0-.83-.4q-.24,0-.24-.15c0-.1.06-.15.19-.15l.58,0h.51a11.5,11.5,0,0,0,1.15,0l.68-.06a9.67,9.67,0,0,1,1,0,6.07,6.07,0,0,1,4.5,1.51,4.79,4.79,0,0,1,1.37,3.52,5.44,5.44,0,0,1-.6,2.54,4.68,4.68,0,0,1-1.67,1.83,5.46,5.46,0,0,1-2.94.84c-.13,0-.36,0-.68,0-.65,0-1.22-.06-1.7-.06a9.19,9.19,0,0,0-1.37.08l-.41,0c-.18,0-.26,0-.26-.16s.07-.14.2-.17a.89.89,0,0,0,.65-.37,2.46,2.46,0,0,0,.15-1.07Zm1.12-.58v7.54a.63.63,0,0,0,.44.62,7.32,7.32,0,0,0,2,.36,4.16,4.16,0,0,0,2.26-.63A3.87,3.87,0,0,0,157.25,56a5.88,5.88,0,0,0-.53-2.53,4.39,4.39,0,0,0-1.45-1.81,4.58,4.58,0,0,0-2.76-.82,2.79,2.79,0,0,0-1.47.25A.73.73,0,0,0,150.85,51.67Z"/><path class="cls-1" d="M165.72,51.65v3a.83.83,0,0,0,.06.41.68.68,0,0,0,.38.07h1.13A6.35,6.35,0,0,0,168.5,55a1.13,1.13,0,0,0,.52-.21,1.47,1.47,0,0,0,.21-.62c0-.12.09-.18.19-.17s.14.07.14.19a1,1,0,0,1,0,.16c0,.48-.06.91-.06,1.3a8.64,8.64,0,0,0,0,.88,2,2,0,0,1,0,.21c0,.12,0,.18-.14.18a.17.17,0,0,1-.18-.16l-.05-.2a1,1,0,0,0-.35-.67,1.64,1.64,0,0,0-.89-.17h-1.62a1.09,1.09,0,0,0-.48.07.32.32,0,0,0-.12.29v3c0,.41.08.67.22.77a2.36,2.36,0,0,0,1.13.16c1.92,0,3.15-.44,3.7-1.3,0-.08.11-.13.16-.13s.14.06.14.19a2,2,0,0,1-.54,1.13,2,2,0,0,1-1.62.79l-.57,0c-.94-.09-1.71-.13-2.32-.13a14.56,14.56,0,0,0-1.81.08,2.1,2.1,0,0,1-.38.06c-.15,0-.23-.06-.23-.16s.06-.14.19-.17l.28-.08c.35-.1.52-.44.52-1V52.5a3,3,0,0,0-.23-1.41,1,1,0,0,0-.9-.36c-.14,0-.21,0-.21-.14s.11-.2.33-.2a3.39,3.39,0,0,1,.49,0,22.62,22.62,0,0,0,2.52.12c.6,0,1.12,0,1.58,0l1-.06a4.5,4.5,0,0,0,.53,0l.29,0q.24,0,.24.21a.59.59,0,0,1,0,.17c0,.06,0,.26-.06.58l0,.43a3.18,3.18,0,0,1-.07.53.15.15,0,0,1-.16.11c-.1,0-.15-.07-.15-.22V52a1.32,1.32,0,0,0-.08-.44.78.78,0,0,0-.57-.44,6.79,6.79,0,0,0-1.55-.11h-1.15a1,1,0,0,0-.59.11A.71.71,0,0,0,165.72,51.65Z"/><path class="cls-1" d="M174.1,52.23l2.82,6.47c.06.16.13.24.19.23s.13-.14.26-.42l.12-.27,1.6-3.81a11.68,11.68,0,0,0,1-3.17.46.46,0,0,0-.11-.34,1,1,0,0,0-.45-.16c-.27,0-.41-.12-.4-.2s.08-.14.24-.14h.21l.66,0h1.44c.1,0,.14.05.14.13s-.05.12-.15.16a1.41,1.41,0,0,0-.8.85l-.2.47-3.64,8.53c-.1.24-.2.36-.29.36s-.21-.12-.31-.37L172.75,52a3.21,3.21,0,0,0-.47-.83,1,1,0,0,0-.58-.3,1.92,1.92,0,0,1-.45-.11.11.11,0,0,1-.07-.11c0-.1.07-.15.2-.15l.22,0h1.92l.47,0h.21c.13,0,.19,0,.19.13s0,.12-.14.16a1.16,1.16,0,0,0-.38.19.38.38,0,0,0-.08.27A3.14,3.14,0,0,0,174.1,52.23Z"/><path class="cls-1" d="M186.38,56.68h-2.66a1.49,1.49,0,0,0-.67.09,1.69,1.69,0,0,0-.35.59l-.48,1.08a3.07,3.07,0,0,0-.33,1.1.64.64,0,0,0,.18.5,1.56,1.56,0,0,0,.67.26c.15,0,.23.09.23.17s-.06.12-.2.12h-.25l-.7-.05h-1.14l-.41,0c-.13,0-.2,0-.2-.14a.14.14,0,0,1,.12-.15l.28-.08a1.14,1.14,0,0,0,.39-.36,3.22,3.22,0,0,0,.41-.65l.21-.48,3.77-8.37q.09-.21.21-.21c.08,0,.14.07.2.21l3.15,8.07.16.39a3.76,3.76,0,0,0,.57,1.11,2,2,0,0,0,.92.34c.15,0,.23.09.22.18s-.07.12-.2.12l-.28,0c-.25,0-.71,0-1.36,0a10.76,10.76,0,0,0-1.27,0l-.23,0c-.12,0-.19,0-.19-.15s.06-.13.19-.15l.22-.05a.44.44,0,0,0,.37-.5,5.56,5.56,0,0,0-.45-1.55l-.36-1a1.26,1.26,0,0,0-.25-.46A.93.93,0,0,0,186.38,56.68Zm.08-1.18-1.15-2.9-.05-.15c-.06-.16-.13-.24-.2-.24s-.07,0-.11.14l-1.43,3.17a1.17,1.17,0,0,0-.1.27c0,.13.12.19.34.19h2.41c.25,0,.37-.06.37-.19a.9.9,0,0,0,0-.16Z"/><path class="cls-1" d="M199.87,53.31v6.14a9.34,9.34,0,0,1,0,1c0,.12-.09.18-.21.17a.24.24,0,0,1-.17-.07l-.16-.19-6.17-7.06-.07-.08a.15.15,0,0,0-.11,0c-.09,0-.14.11-.14.33V58.8l0,.52a1.07,1.07,0,0,0,.25.67,1.56,1.56,0,0,0,.77.27c.17,0,.25.08.25.18a.14.14,0,0,1-.16.15l-.22,0-.64,0-.74,0H192a4.91,4.91,0,0,0-.55,0,1.53,1.53,0,0,1-.27,0c-.12,0-.19,0-.2-.13s.06-.13.2-.18a1.46,1.46,0,0,0,.83-.57,2.24,2.24,0,0,0,.22-1.15v-5a4.18,4.18,0,0,0-.4-2,1.54,1.54,0,0,0-1.17-.83c-.13,0-.19-.07-.19-.16s0-.14.16-.14h1.29a.5.5,0,0,1,.37.21L199,58.28c.1.12.17.18.2.18s.08-.06.08-.14V53.7L199.22,52a1.36,1.36,0,0,0-.36-.88,2,2,0,0,0-1-.39c-.15,0-.22-.08-.22-.18s.07-.13.22-.13a2,2,0,0,1,.3,0c.34,0,.79,0,1.36,0a4.48,4.48,0,0,0,.72,0l.36,0q.19,0,.21.15c0,.07-.05.11-.15.14a.91.91,0,0,0-.59.37,2.28,2.28,0,0,0-.14,1v.79Z"/><path class="cls-1" d="M205.3,50.31a3.48,3.48,0,0,1,1.33.23l.5.21.13,0a.27.27,0,0,0,.18-.07l.1-.09a.1.1,0,0,1,.08,0c.13,0,.19.11.19.36,0,.08,0,.33.09.74l.12.75c0,.16,0,.26,0,.3s-.06.23-.16.23-.16-.12-.24-.35a2.46,2.46,0,0,0-1.07-1.31,3.32,3.32,0,0,0-1.8-.52,1.94,1.94,0,0,0-1.32.47,1.5,1.5,0,0,0-.53,1.16,1.72,1.72,0,0,0,.35,1.07,1.93,1.93,0,0,0,.65.55,18.15,18.15,0,0,0,1.75.64q2.7.89,2.7,2.91a2.85,2.85,0,0,1-1,2.24,3.77,3.77,0,0,1-2.56.87,5.78,5.78,0,0,1-1.24-.16,3.24,3.24,0,0,1-1-.38.51.51,0,0,1-.18-.18,4.17,4.17,0,0,1-.13-.51l-.18-.67a3.78,3.78,0,0,1-.19-.94c0-.14,0-.21.14-.21s.17.12.24.36a2.88,2.88,0,0,0,1.11,1.53,3.08,3.08,0,0,0,1.84.61,2.52,2.52,0,0,0,1.71-.59,1.84,1.84,0,0,0,.7-1.44,1.73,1.73,0,0,0-.65-1.37,7.18,7.18,0,0,0-1.9-.82,6.12,6.12,0,0,1-2.3-1.21,2.34,2.34,0,0,1-.68-1.73,2.41,2.41,0,0,1,.89-1.93A3.38,3.38,0,0,1,205.3,50.31Z"/><path class="cls-1" d="M216.79,51.27h-2.06a.61.61,0,0,0-.41.09.75.75,0,0,0-.08.43v7.48a1,1,0,0,0,.95,1c.18,0,.26.08.26.16s-.07.16-.21.16l-.35,0c-.1,0-.32,0-.67,0h-1.1l-.52,0-.5,0c-.14,0-.22,0-.22-.16s.08-.12.25-.14a1.2,1.2,0,0,0,.76-.31,1.42,1.42,0,0,0,.19-.86V51.68a.52.52,0,0,0-.08-.34.55.55,0,0,0-.35-.07h-1.95a1.28,1.28,0,0,0-.86.24,1.8,1.8,0,0,0-.41.9c0,.19-.11.28-.2.27s-.13-.07-.13-.19a3.22,3.22,0,0,1,.09-.57,4.58,4.58,0,0,0,.11-.86.92.92,0,0,1,.07-.45.41.41,0,0,1,.33-.1h7.89a.8.8,0,0,1,.49.09,1,1,0,0,1,.08.51,3.21,3.21,0,0,0,0,.63c0,.17,0,.29,0,.36s-.05.22-.15.23-.15-.07-.18-.22a1.05,1.05,0,0,0-.31-.68A1.42,1.42,0,0,0,216.79,51.27Z"/><path class="cls-1" d="M224,50.31a5.17,5.17,0,0,1,3.76,1.42,4.8,4.8,0,0,1,1.47,3.62,5.23,5.23,0,0,1-1.48,3.85,5.08,5.08,0,0,1-3.78,1.5,5.21,5.21,0,0,1-3.83-1.44,5,5,0,0,1-1.46-3.76,5.63,5.63,0,0,1,.38-2,4.79,4.79,0,0,1,1-1.66,5,5,0,0,1,1.74-1.12A6,6,0,0,1,224,50.31Zm-.47.48a3.4,3.4,0,0,0-2.7,1.14,4.5,4.5,0,0,0-1,3.08,5.57,5.57,0,0,0,1.28,3.74,3.93,3.93,0,0,0,3.14,1.52A3.6,3.6,0,0,0,227,59a4.55,4.55,0,0,0,1.1-3.14,5.21,5.21,0,0,0-1.32-3.64A4.28,4.28,0,0,0,223.5,50.79Z"/><path class="cls-1" d="M239.3,53.31v6.14a9.34,9.34,0,0,1,0,1c0,.12-.1.18-.21.17a.24.24,0,0,1-.17-.07l-.16-.19-6.17-7.06-.08-.08a.13.13,0,0,0-.1,0c-.09,0-.14.11-.14.33V58.8l0,.52a1,1,0,0,0,.25.67,1.56,1.56,0,0,0,.77.27q.24,0,.24.18a.13.13,0,0,1-.15.15l-.22,0-.64,0-.74,0h-.36a4.56,4.56,0,0,0-.54,0,1.59,1.59,0,0,1-.27,0c-.13,0-.19,0-.2-.13s.06-.13.2-.18a1.46,1.46,0,0,0,.83-.57,2.24,2.24,0,0,0,.22-1.15v-5a4.3,4.3,0,0,0-.4-2,1.54,1.54,0,0,0-1.17-.83c-.13,0-.2-.07-.2-.16s.06-.14.16-.14h1.3a.53.53,0,0,1,.37.21l6.74,7.63c.1.12.17.18.2.18s.08-.06.08-.14V53.7L238.65,52a1.36,1.36,0,0,0-.36-.88,2.05,2.05,0,0,0-1-.39q-.21,0-.21-.18c0-.09.07-.13.21-.13a2,2,0,0,1,.31,0c.34,0,.79,0,1.36,0a4.48,4.48,0,0,0,.72,0l.36,0q.19,0,.21.15c0,.07,0,.11-.15.14a.88.88,0,0,0-.59.37,2.13,2.13,0,0,0-.14,1v.79Z"/><path class="cls-1" d="M242.57,49.67c.22,0,.44.17.65.51a2,2,0,0,1,.32,1,2.64,2.64,0,0,1-.66,1.69c-.36.45-.66.67-.9.67-.09,0-.13,0-.13-.12s0-.11.13-.16a1.71,1.71,0,0,0,.48-.56,1.5,1.5,0,0,0,.21-.69,1.37,1.37,0,0,0-.78-1.26q-.21-.12-.21-.24a.36.36,0,0,1,.13-.24l.32-.29.27-.31A.23.23,0,0,1,242.57,49.67Z"/><path class="cls-1" d="M248.33,50.31a3.43,3.43,0,0,1,1.32.23l.51.21a.28.28,0,0,0,.13,0,.23.23,0,0,0,.17-.07l.11-.09s0,0,.08,0,.18.11.18.36a6.55,6.55,0,0,0,.1.74l.11.75a2,2,0,0,1,0,.3c0,.15-.05.23-.16.23s-.16-.12-.24-.35a2.42,2.42,0,0,0-1.07-1.31,3.27,3.27,0,0,0-1.8-.52,1.91,1.91,0,0,0-1.31.47,1.46,1.46,0,0,0-.53,1.16,1.71,1.71,0,0,0,.34,1.07A1.93,1.93,0,0,0,247,54a18.15,18.15,0,0,0,1.75.64c1.8.59,2.71,1.56,2.71,2.91a2.86,2.86,0,0,1-1,2.24,3.75,3.75,0,0,1-2.56.87,5.86,5.86,0,0,1-1.24-.16,3.24,3.24,0,0,1-1-.38.51.51,0,0,1-.18-.18,4.17,4.17,0,0,1-.13-.51l-.18-.67a3.78,3.78,0,0,1-.19-.94q0-.21.15-.21t.24.36a2.78,2.78,0,0,0,1.11,1.53,3.06,3.06,0,0,0,1.84.61,2.5,2.5,0,0,0,1.7-.59,1.81,1.81,0,0,0,.7-1.44,1.72,1.72,0,0,0-.64-1.37,7.36,7.36,0,0,0-1.9-.82,6.17,6.17,0,0,1-2.31-1.21,2.33,2.33,0,0,1-.67-1.73,2.41,2.41,0,0,1,.88-1.93A3.4,3.4,0,0,1,248.33,50.31Z"/><path class="cls-1" d="M261.69,50.31a5.17,5.17,0,0,1,3.76,1.42,4.8,4.8,0,0,1,1.47,3.62,5.23,5.23,0,0,1-1.48,3.85,5.1,5.1,0,0,1-3.79,1.5,5.21,5.21,0,0,1-3.82-1.44,5,5,0,0,1-1.46-3.76,5.42,5.42,0,0,1,.38-2,4.79,4.79,0,0,1,1-1.66,5,5,0,0,1,1.74-1.12A6,6,0,0,1,261.69,50.31Zm-.47.48a3.39,3.39,0,0,0-2.7,1.14,4.5,4.5,0,0,0-1,3.08,5.61,5.61,0,0,0,1.27,3.74,4,4,0,0,0,3.15,1.52,3.57,3.57,0,0,0,2.8-1.24,4.51,4.51,0,0,0,1.11-3.14,5.17,5.17,0,0,0-1.33-3.64A4.24,4.24,0,0,0,261.22,50.79Z"/><path class="cls-1" d="M277,53.31v6.14a6.53,6.53,0,0,1,0,1,.18.18,0,0,1-.2.17.24.24,0,0,1-.17-.07l-.16-.19-6.17-7.06-.08-.08a.13.13,0,0,0-.1,0c-.09,0-.14.11-.14.33V58.8l0,.52a1.13,1.13,0,0,0,.25.67,1.6,1.6,0,0,0,.78.27q.24,0,.24.18a.13.13,0,0,1-.15.15l-.22,0-.64,0-.75,0h-.35a4.56,4.56,0,0,0-.54,0,1.66,1.66,0,0,1-.27,0c-.13,0-.2,0-.2-.13s.06-.13.2-.18a1.46,1.46,0,0,0,.83-.57,2.35,2.35,0,0,0,.22-1.15v-5a4.17,4.17,0,0,0-.41-2,1.51,1.51,0,0,0-1.16-.83c-.13,0-.2-.07-.2-.16s.06-.14.16-.14h1.3a.53.53,0,0,1,.37.21l6.73,7.63q.16.18.21.18c.05,0,.07-.06.08-.14V53.7L276.37,52a1.36,1.36,0,0,0-.36-.88,2.05,2.05,0,0,0-1.05-.39q-.21,0-.21-.18c0-.09.07-.13.21-.13a2,2,0,0,1,.31,0c.34,0,.79,0,1.35,0a4.53,4.53,0,0,0,.73,0l.36,0c.13,0,.19,0,.2.15s0,.11-.14.14a.88.88,0,0,0-.59.37,2.13,2.13,0,0,0-.14,1v.79Z"/><path class="cls-1" d="M281.64,58.53v.26a1.82,1.82,0,0,0,.17,1,2.06,2.06,0,0,0,1.1.16,7.7,7.7,0,0,0,2.38-.32,2.16,2.16,0,0,0,1.29-.86c.06-.13.13-.2.2-.2s.12,0,.11.15a2,2,0,0,1-.48,1.05,2.45,2.45,0,0,1-2,.8l-.54,0-.8-.06c-.46,0-1-.05-1.47-.05a12.61,12.61,0,0,0-1.51.08l-.41,0c-.12,0-.18,0-.18-.13s.06-.13.2-.17a1.11,1.11,0,0,0,.68-.45,2.19,2.19,0,0,0,.17-1V52c0-.65-.26-1-.79-1.14l-.33-.06c-.12,0-.18-.07-.18-.15s.09-.16.25-.16l.46,0c.33,0,.71,0,1.12,0s.86,0,1.22,0l.31,0c.12,0,.18,0,.18.11s-.07.17-.21.21l-.26.06c-.44.1-.66.54-.66,1.31Z"/><path class="cls-1" d="M290.72,59a2.15,2.15,0,0,0,.14,1c.09.13.35.21.79.26.15,0,.23.06.23.15s-.09.17-.26.17l-.38,0-.53,0-.58,0-.58,0-.72,0-.28,0c-.11,0-.17,0-.17-.12s.08-.15.24-.18a1.09,1.09,0,0,0,.78-.32,2.05,2.05,0,0,0,.17-1v-2.5a2.9,2.9,0,0,0-.06-.69,3.35,3.35,0,0,0-.32-.62l-2.05-3.25-.25-.4a1.55,1.55,0,0,0-.6-.56,1.51,1.51,0,0,0-.77-.22c-.14,0-.21,0-.21-.13s.08-.16.23-.16a2.36,2.36,0,0,1,.37,0,8,8,0,0,0,1,.06,13,13,0,0,0,1.38,0l.39,0c.14,0,.21,0,.21.14s-.06.13-.17.16c-.33.1-.49.27-.49.5a1.64,1.64,0,0,0,.32.7l.2.36,1.54,2.42.1.14c0,.07.08.11.13.11s.1,0,.15-.11l.08-.1,1.05-1.61.36-.57a2.87,2.87,0,0,0,.51-1.09c0-.33-.3-.57-.92-.71-.12,0-.18-.09-.17-.17s.06-.13.16-.13l.39,0a7.23,7.23,0,0,0,1,0c.5,0,.82,0,1,0l.39,0c.13,0,.19,0,.19.13s-.06.13-.18.17a2.11,2.11,0,0,0-1.08.82l-.48.71L291.17,55l-.18.25a1.29,1.29,0,0,0-.27.72Z"/><path class="cls-1" d="M300,52.25a1.83,1.83,0,0,0-.25-1.08,1,1,0,0,0-.82-.4c-.17,0-.25-.07-.25-.15s.07-.15.2-.15l.57,0H300c.49,0,.87,0,1.15,0l.68-.06a9.46,9.46,0,0,1,1,0,6.08,6.08,0,0,1,4.51,1.51,4.79,4.79,0,0,1,1.37,3.52,5.44,5.44,0,0,1-.6,2.54,4.68,4.68,0,0,1-1.67,1.83,5.47,5.47,0,0,1-2.95.84c-.12,0-.35,0-.67,0-.66,0-1.22-.06-1.71-.06a9.13,9.13,0,0,0-1.36.08,4.12,4.12,0,0,1-.42,0c-.17,0-.25,0-.25-.16s.07-.14.2-.17a.91.91,0,0,0,.65-.37,2.69,2.69,0,0,0,.14-1.07Zm1.12-.58v7.54a.63.63,0,0,0,.45.62,6.43,6.43,0,0,0,1,.25,6.14,6.14,0,0,0,1,.11,4.16,4.16,0,0,0,2.26-.63A3.87,3.87,0,0,0,307.56,56a5.88,5.88,0,0,0-.53-2.53,4.33,4.33,0,0,0-1.46-1.81,4.54,4.54,0,0,0-2.76-.82,2.79,2.79,0,0,0-1.47.25A.76.76,0,0,0,301.15,51.67Z"/><path class="cls-1" d="M314.6,56.68H312a1.46,1.46,0,0,0-.67.09,1.66,1.66,0,0,0-.36.59l-.48,1.08a3.22,3.22,0,0,0-.32,1.1.67.67,0,0,0,.17.5,1.61,1.61,0,0,0,.68.26c.15,0,.22.09.23.17s-.07.12-.21.12h-.25l-.7-.05H308.9l-.41,0c-.13,0-.2,0-.2-.14a.15.15,0,0,1,.13-.15l.27-.08a1.06,1.06,0,0,0,.4-.36,3.73,3.73,0,0,0,.41-.65l.21-.48,3.76-8.37c.07-.14.14-.21.22-.21s.14.07.19.21L317,58.42l.16.39a3.48,3.48,0,0,0,.58,1.11,2,2,0,0,0,.92.34c.15,0,.22.09.22.18s-.08.12-.21.12l-.28,0q-.37,0-1.35,0a11,11,0,0,0-1.28,0l-.22,0c-.13,0-.19,0-.19-.15s.06-.13.18-.15l.23-.05a.45.45,0,0,0,.36-.5,5.79,5.79,0,0,0-.44-1.55l-.37-1a1.15,1.15,0,0,0-.24-.46A1,1,0,0,0,314.6,56.68Zm.09-1.18-1.15-2.9-.06-.15c-.06-.16-.12-.24-.19-.24s-.07,0-.12.14l-1.43,3.17a1,1,0,0,0-.09.27c0,.13.11.19.34.19h2.41c.24,0,.36-.06.36-.19a.69.69,0,0,0,0-.16Z"/><path class="cls-1" d="M321.62,52.64v5.5a4.67,4.67,0,0,0,.13,1.35,1.17,1.17,0,0,0,.36.53,1.46,1.46,0,0,0,.68.22c.24,0,.37.1.37.18s-.08.17-.23.17a1.52,1.52,0,0,1-.28,0,6.83,6.83,0,0,0-.78,0l-1.06,0-.86,0a2.37,2.37,0,0,1-.35,0c-.14,0-.2-.05-.2-.15s.07-.14.22-.16a.9.9,0,0,0,.72-.39,2.9,2.9,0,0,0,.16-1.22V52.39a2.43,2.43,0,0,0-.21-1.22,1.26,1.26,0,0,0-.88-.43c-.16,0-.23-.08-.24-.17s.07-.16.21-.16h.14a10.65,10.65,0,0,0,1.42.07q.54,0,.93,0l.49,0h.18c.13,0,.2.05.2.14s-.07.15-.19.19l-.38.15C321.8,51,321.62,51.61,321.62,52.64Z"/><path class="cls-1" d="M326.54,58.53v.26c0,.59.05.93.16,1a2.1,2.1,0,0,0,1.11.16,7.75,7.75,0,0,0,2.38-.32,2.1,2.1,0,0,0,1.28-.86c.07-.13.14-.2.21-.2s.11,0,.11.15a2,2,0,0,1-.48,1.05,2.45,2.45,0,0,1-2,.8l-.55,0-.79-.06c-.46,0-.95-.05-1.47-.05a12.49,12.49,0,0,0-1.51.08l-.41,0c-.13,0-.19,0-.19-.13s.07-.13.2-.17a1.13,1.13,0,0,0,.69-.45,2.19,2.19,0,0,0,.17-1V52a1,1,0,0,0-.8-1.14l-.33-.06c-.11,0-.17-.07-.17-.15s.08-.16.25-.16l.46,0c.33,0,.7,0,1.12,0s.85,0,1.22,0l.31,0c.12,0,.18,0,.18.11s-.07.17-.21.21l-.26.06c-.44.1-.66.54-.66,1.31Z"/><path class="cls-1" d="M335.61,59a2.29,2.29,0,0,0,.14,1c.1.13.36.21.8.26.15,0,.23.06.23.15s-.09.17-.26.17l-.38,0-.54,0-.58,0-.57,0c-.36,0-.6,0-.72,0l-.28,0c-.12,0-.17,0-.17-.12s.08-.15.24-.18a1.09,1.09,0,0,0,.78-.32,2.09,2.09,0,0,0,.16-1v-2.5a2.9,2.9,0,0,0-.06-.69,3.55,3.55,0,0,0-.33-.62l-2-3.25-.25-.4a1.73,1.73,0,0,0-1.37-.78c-.14,0-.21,0-.21-.13s.07-.16.23-.16a2.36,2.36,0,0,1,.37,0,7.86,7.86,0,0,0,1,.06,13,13,0,0,0,1.38,0l.38,0c.15,0,.22,0,.22.14s-.06.13-.17.16c-.33.1-.49.27-.49.5a1.71,1.71,0,0,0,.31.7l.21.36,1.54,2.42.1.14c0,.07.08.11.13.11s.1,0,.15-.11l.07-.1,1.06-1.61.36-.57a2.87,2.87,0,0,0,.51-1.09c0-.33-.31-.57-.92-.71-.12,0-.18-.09-.18-.17a.15.15,0,0,1,.17-.13l.39,0a7.14,7.14,0,0,0,1,0c.5,0,.82,0,.95,0l.39,0c.14,0,.2,0,.2.13s-.06.13-.18.17a2.14,2.14,0,0,0-1.09.82l-.47.71L336.07,55l-.18.25a1.31,1.31,0,0,0-.28.72Z"/><path class="cls-1" d="M352.53,53.31v6.14a8.28,8.28,0,0,1,0,1c0,.12-.09.18-.21.17a.2.2,0,0,1-.16-.07l-.17-.19-6.17-7.06-.07-.08a.15.15,0,0,0-.11,0c-.09,0-.14.11-.14.33V58.8l0,.52a1.07,1.07,0,0,0,.25.67,1.56,1.56,0,0,0,.77.27c.17,0,.25.08.25.18s-.05.15-.16.15l-.22,0-.63,0-.75,0h-.35a4.91,4.91,0,0,0-.55,0,1.53,1.53,0,0,1-.27,0c-.12,0-.19,0-.2-.13s.06-.13.2-.18a1.53,1.53,0,0,0,.84-.57,2.37,2.37,0,0,0,.21-1.15v-5a4.18,4.18,0,0,0-.4-2,1.54,1.54,0,0,0-1.17-.83c-.13,0-.19-.07-.19-.16s.05-.14.16-.14h1.29a.5.5,0,0,1,.37.21l6.74,7.63c.11.12.17.18.2.18s.08-.06.08-.14V53.7L351.87,52a1.36,1.36,0,0,0-.36-.88,2,2,0,0,0-1-.39c-.14,0-.22-.08-.22-.18s.08-.13.22-.13a2,2,0,0,1,.3,0c.34,0,.79,0,1.36,0a4.48,4.48,0,0,0,.72,0l.36,0q.19,0,.21.15c0,.07,0,.11-.15.14a.91.91,0,0,0-.59.37,2.28,2.28,0,0,0-.14,1v1.27Z"/><path class="cls-1" d="M357.15,51.65v3a.83.83,0,0,0,.06.41.66.66,0,0,0,.38.07h1.12a6.46,6.46,0,0,0,1.22-.09,1.13,1.13,0,0,0,.51-.21,1.47,1.47,0,0,0,.21-.62c0-.12.09-.18.19-.17s.14.07.14.19v.16a12.5,12.5,0,0,0-.07,1.3,8.65,8.65,0,0,0,0,.88c0,.1,0,.17,0,.21s-.05.18-.14.18a.17.17,0,0,1-.19-.16l0-.2a1,1,0,0,0-.35-.67,1.7,1.7,0,0,0-.9-.17h-1.61a1,1,0,0,0-.48.07.32.32,0,0,0-.12.29v3c0,.41.07.67.22.77a2.33,2.33,0,0,0,1.13.16c1.92,0,3.15-.44,3.69-1.3.06-.08.11-.13.17-.13s.13.06.13.19a2.3,2.3,0,0,1-2.16,1.92l-.57,0c-.93-.09-1.7-.13-2.31-.13a14.45,14.45,0,0,0-1.81.08,2.24,2.24,0,0,1-.38.06c-.16,0-.24-.06-.24-.16s.07-.14.19-.17l.28-.08c.35-.1.53-.44.53-1V52.5a2.81,2.81,0,0,0-.24-1.41,1,1,0,0,0-.89-.36c-.14,0-.21,0-.21-.14s.1-.2.33-.2a3.5,3.5,0,0,1,.49,0,22.37,22.37,0,0,0,2.52.12c.59,0,1.12,0,1.58,0l1-.06a4.27,4.27,0,0,0,.52,0l.3,0q.24,0,.24.21a1.49,1.49,0,0,1,0,.17,3.77,3.77,0,0,0-.06.58l0,.43a2.8,2.8,0,0,1-.08.53.15.15,0,0,1-.16.11c-.09,0-.14-.07-.14-.22V52a1.12,1.12,0,0,0-.09-.44.76.76,0,0,0-.56-.44A6.83,6.83,0,0,0,359,51h-1.15a1,1,0,0,0-.58.11A.67.67,0,0,0,357.15,51.65Z"/><path class="cls-1" d="M371,54.87l1.47,3.48c.16.38.27.57.35.57s.14-.11.24-.33.09-.21.18-.41q1-2.13,1.79-4.31a13.44,13.44,0,0,0,.83-2.57c0-.23-.21-.39-.62-.48-.23,0-.35-.13-.35-.23s.08-.15.22-.15h.13c.21,0,.5,0,.88,0a8.28,8.28,0,0,0,1,0l.34,0c.11,0,.17,0,.17.16s-.07.16-.22.22a.74.74,0,0,0-.44.44l-.41.87c-.16.36-.42,1-.77,1.77s-.64,1.51-.83,1.94l-.88,2-.59,1.38-.35.8-.16.38-.11.22c-.12.27-.25.4-.37.4s-.21-.12-.32-.35l-1.82-4.24-1.83,4.36c-.09.21-.18.32-.27.31s-.26-.19-.42-.57l-3-7.24-.19-.49a6.52,6.52,0,0,0-.7-1.38,1.23,1.23,0,0,0-.75-.49l-.3-.07a.17.17,0,0,1-.15-.18c0-.11.07-.17.22-.17h.18a5,5,0,0,0,.74,0h.9l.62,0,.45,0c.13,0,.2.06.2.18a.18.18,0,0,1-.16.19c-.31.09-.46.23-.46.43a5.41,5.41,0,0,0,.53,1.58c.16.37.43,1,.79,1.9s.6,1.47.74,1.81l.72,1.58a2.6,2.6,0,0,0,.16.35l.08.16c.06.11.1.16.13.16s.08-.08.15-.23l0-.09L370,55.53c-.11-.24-.17-.39-.19-.44l-.65-1.53-.61-1.42a4.92,4.92,0,0,0-.52-1,.91.91,0,0,0-.58-.27c-.4-.05-.6-.14-.59-.26s.11-.15.31-.15h.29l1.42,0a6.79,6.79,0,0,0,.73,0l.31,0c.17,0,.26.06.26.17s-.08.15-.24.21a.48.48,0,0,0-.35.47,2.58,2.58,0,0,0,.26.9l.77,1.84c.07-.15.12-.26.15-.34a8.47,8.47,0,0,0,.85-2.45c0-.22-.17-.36-.49-.42s-.35-.12-.35-.24.09-.14.26-.14h.28l.75,0a6.57,6.57,0,0,0,.72,0,2,2,0,0,1,.3,0c.14,0,.22.05.22.17s-.09.14-.26.19a.78.78,0,0,0-.41.27,6.75,6.75,0,0,0-.46,1Z"/><path class="cls-1" d="M381,50.31a3.45,3.45,0,0,1,1.33.23l.5.21a.35.35,0,0,0,.14,0,.27.27,0,0,0,.17-.07l.1-.09a.11.11,0,0,1,.08,0c.13,0,.19.11.19.36,0,.08,0,.33.09.74l.12.75c0,.16,0,.26,0,.3s-.06.23-.16.23-.16-.12-.24-.35a2.42,2.42,0,0,0-1.07-1.31,3.32,3.32,0,0,0-1.8-.52,2,2,0,0,0-1.32.47,1.49,1.49,0,0,0-.52,1.16,1.71,1.71,0,0,0,.34,1.07,1.93,1.93,0,0,0,.65.55,18.15,18.15,0,0,0,1.75.64q2.7.89,2.7,2.91a2.85,2.85,0,0,1-1,2.24,3.77,3.77,0,0,1-2.56.87,5.86,5.86,0,0,1-1.24-.16,3.24,3.24,0,0,1-1-.38.51.51,0,0,1-.18-.18,4.17,4.17,0,0,1-.13-.51l-.18-.67a3.78,3.78,0,0,1-.19-.94q0-.21.15-.21T378,58a2.78,2.78,0,0,0,1.11,1.53,3,3,0,0,0,1.84.61,2.5,2.5,0,0,0,1.7-.59,1.81,1.81,0,0,0,.7-1.44,1.75,1.75,0,0,0-.64-1.37,7.31,7.31,0,0,0-1.91-.82,6.12,6.12,0,0,1-2.3-1.21,2.33,2.33,0,0,1-.67-1.73,2.41,2.41,0,0,1,.88-1.93A3.4,3.4,0,0,1,381,50.31Z"/><path class="cls-1" d="M392.29,50.31a3.43,3.43,0,0,1,1.32.23l.51.21a.31.31,0,0,0,.13,0,.27.27,0,0,0,.18-.07l.1-.09s0,0,.08,0,.18.11.18.36a6.55,6.55,0,0,0,.1.74l.12.75q0,.24,0,.3c0,.15-.05.23-.15.23s-.16-.12-.24-.35a2.51,2.51,0,0,0-1.07-1.31,3.32,3.32,0,0,0-1.8-.52,1.92,1.92,0,0,0-1.32.47,1.5,1.5,0,0,0-.53,1.16,1.71,1.71,0,0,0,.34,1.07,1.87,1.87,0,0,0,.66.55,17.56,17.56,0,0,0,1.74.64c1.81.59,2.71,1.56,2.71,2.91a2.83,2.83,0,0,1-1,2.24,3.72,3.72,0,0,1-2.55.87,5.94,5.94,0,0,1-1.25-.16,3.24,3.24,0,0,1-1-.38.47.47,0,0,1-.17-.18,2.84,2.84,0,0,1-.13-.51s-.08-.26-.19-.67a3.78,3.78,0,0,1-.19-.94q0-.21.15-.21t.24.36a2.83,2.83,0,0,0,1.11,1.53,3.06,3.06,0,0,0,1.84.61,2.54,2.54,0,0,0,1.71-.59,1.83,1.83,0,0,0,.69-1.44,1.72,1.72,0,0,0-.64-1.37,7.18,7.18,0,0,0-1.9-.82,6.12,6.12,0,0,1-2.3-1.21,2.34,2.34,0,0,1-.68-1.73,2.44,2.44,0,0,1,.88-1.93A3.4,3.4,0,0,1,392.29,50.31Z"/><path class="cls-1" d="M401.91,50.31a5.19,5.19,0,0,1,3.76,1.42,4.83,4.83,0,0,1,1.46,3.62,5.26,5.26,0,0,1-1.47,3.85,5.1,5.1,0,0,1-3.79,1.5A5.23,5.23,0,0,1,398,59.26a5,5,0,0,1-1.46-3.76,5.63,5.63,0,0,1,.38-2,4.62,4.62,0,0,1,2.78-2.78A6.05,6.05,0,0,1,401.91,50.31Zm-.48.48a3.42,3.42,0,0,0-2.7,1.14,4.5,4.5,0,0,0-1,3.08A5.62,5.62,0,0,0,399,58.75a3.93,3.93,0,0,0,3.14,1.52A3.6,3.6,0,0,0,405,59a4.51,4.51,0,0,0,1.11-3.14,5.21,5.21,0,0,0-1.33-3.64A4.28,4.28,0,0,0,401.43,50.79Z"/><path class="cls-1" d="M417.29,56.28V52.49a2.53,2.53,0,0,0-.26-1.33,1.12,1.12,0,0,0-.89-.47c-.15,0-.22-.07-.22-.16a.13.13,0,0,1,.15-.15l.47.06a4,4,0,0,0,.66.05,9.48,9.48,0,0,0,1,0l.32,0a.12.12,0,0,1,.14.13c0,.07-.05.13-.15.17a1,1,0,0,0-.58.52,3.8,3.8,0,0,0-.13,1.24v3.63a5.1,5.1,0,0,1-.8,3.07,3.42,3.42,0,0,1-1.45,1.09,5.05,5.05,0,0,1-2,.41,5,5,0,0,1-2.24-.49,3.24,3.24,0,0,1-1.46-1.31,5.1,5.1,0,0,1-.52-2.48V52.28a1.89,1.89,0,0,0-.22-1.08,1.22,1.22,0,0,0-.87-.39c-.13,0-.19-.07-.19-.15s.09-.17.27-.17h.51c.22,0,.39,0,.49,0h1.12l.41,0,.37,0c.12,0,.17,0,.17.12s-.08.15-.23.18a.78.78,0,0,0-.57.37,2.43,2.43,0,0,0-.14,1v4.17A4.73,4.73,0,0,0,411,59a3.2,3.2,0,0,0,2.78,1.14,3.35,3.35,0,0,0,2.61-1A4.18,4.18,0,0,0,417.29,56.28Z"/><path class="cls-1" d="M425.05,55.49l2,3,.24.35c.62.91,1.2,1.39,1.72,1.42l.24,0c.09,0,.13,0,.12.1s-.11.14-.32.2a2.75,2.75,0,0,1-.73.09,2.05,2.05,0,0,1-1.18-.36,4.33,4.33,0,0,1-1.06-1.18l-1.83-2.79-.1-.16a.62.62,0,0,0-.57-.3h-1l-.16,0a.28.28,0,0,0-.08.24v2.58a3.38,3.38,0,0,0,.07.87.8.8,0,0,0,.29.41,1.91,1.91,0,0,0,1,.32c.17,0,.26.07.27.16s-.07.15-.24.15a3.73,3.73,0,0,1-.44,0q-.3,0-.93,0H421.3a4.62,4.62,0,0,0-.6,0l-.4,0q-.18,0-.18-.15c0-.08.06-.12.18-.15a1,1,0,0,0,.77-.53,4.94,4.94,0,0,0,.18-1.66v-6c0-.76-.27-1.19-.8-1.28l-.34,0c-.16,0-.24-.08-.24-.17s.09-.15.25-.15l.52,0,.65,0,1.15,0c.39,0,.73,0,1,0a4.19,4.19,0,0,1,2.54.64,2.2,2.2,0,0,1,.86,1.89A2.8,2.8,0,0,1,425.05,55.49Zm-2.15-.16h.83a2.1,2.1,0,0,0,1.51-.53,1.91,1.91,0,0,0,.55-1.45A2.27,2.27,0,0,0,425,51.6a2.7,2.7,0,0,0-1.91-.69,1,1,0,0,0-.6.14.67.67,0,0,0-.16.52V54.8a.7.7,0,0,0,.09.44A.66.66,0,0,0,422.9,55.33Z"/><path class="cls-1" d="M438.23,51.36l.24,1.76,0,.18,0,.07a.15.15,0,0,1-.11.08c-.06,0-.15-.1-.27-.31a4.14,4.14,0,0,0-3.71-2.4,3.87,3.87,0,0,0-2.95,1.15A4.4,4.4,0,0,0,430.35,55a5.69,5.69,0,0,0,1.2,3.74,3.81,3.81,0,0,0,3.08,1.45,4.46,4.46,0,0,0,2.17-.59,3.37,3.37,0,0,0,1.47-1.42c.13-.26.22-.39.29-.4s.12,0,.12.14V58l0,.16-.17.9,0,.13c0,.13-.13.26-.34.4a6.79,6.79,0,0,1-3.73,1.08,5.24,5.24,0,0,1-3.8-1.4,4.9,4.9,0,0,1-1.44-3.68,5.22,5.22,0,0,1,1.49-3.8,5.06,5.06,0,0,1,3.75-1.51,5.83,5.83,0,0,1,2.84.7l.3.15.11.05.13,0a.24.24,0,0,0,.11-.06.53.53,0,0,1,.22-.12C438.16,51.08,438.21,51.17,438.23,51.36Z"/><path class="cls-1" d="M442.19,51.65v3a.83.83,0,0,0,.06.41.66.66,0,0,0,.38.07h1.12A6.46,6.46,0,0,0,445,55a1.08,1.08,0,0,0,.51-.21,1.59,1.59,0,0,0,.22-.62c0-.12.08-.18.18-.17s.15.07.15.19,0,.09,0,.16a12.5,12.5,0,0,0-.07,1.3,8.65,8.65,0,0,0,.05.88,2,2,0,0,1,0,.21c0,.12-.05.18-.14.18a.17.17,0,0,1-.19-.16l0-.2a1,1,0,0,0-.35-.67,1.7,1.7,0,0,0-.9-.17h-1.61a1,1,0,0,0-.48.07.32.32,0,0,0-.12.29v3c0,.41.07.67.22.77a2.36,2.36,0,0,0,1.13.16c1.92,0,3.15-.44,3.69-1.3.06-.08.11-.13.17-.13s.13.06.13.19a1.92,1.92,0,0,1-.53,1.13,2,2,0,0,1-1.63.79l-.57,0c-.93-.09-1.7-.13-2.31-.13a14.45,14.45,0,0,0-1.81.08,2.24,2.24,0,0,1-.38.06c-.16,0-.24-.06-.24-.16s.07-.14.19-.17l.28-.08c.35-.1.53-.44.53-1V52.5a3,3,0,0,0-.23-1.41,1,1,0,0,0-.9-.36c-.14,0-.21,0-.21-.14s.11-.2.33-.2a3.5,3.5,0,0,1,.49,0,22.5,22.5,0,0,0,2.52.12c.59,0,1.12,0,1.58,0l1-.06a4.64,4.64,0,0,0,.53,0l.29,0q.24,0,.24.21a1.49,1.49,0,0,1,0,.17,3.77,3.77,0,0,0-.06.58l0,.43a3.18,3.18,0,0,1-.07.53.17.17,0,0,1-.17.11c-.09,0-.14-.07-.14-.22V52a1.12,1.12,0,0,0-.09-.44.76.76,0,0,0-.56-.44,6.83,6.83,0,0,0-1.56-.11H442.9a1,1,0,0,0-.58.11A.67.67,0,0,0,442.19,51.65Z"/><path class="cls-1" d="M455.51,50.31a3.43,3.43,0,0,1,1.32.23l.51.21a.31.31,0,0,0,.13,0,.27.27,0,0,0,.18-.07l.1-.09a.1.1,0,0,1,.08,0q.18,0,.18.36c0,.08,0,.33.1.74l.12.75q0,.24,0,.3c0,.15-.05.23-.15.23s-.16-.12-.24-.35a2.46,2.46,0,0,0-1.07-1.31,3.32,3.32,0,0,0-1.8-.52,1.92,1.92,0,0,0-1.32.47,1.5,1.5,0,0,0-.53,1.16,1.72,1.72,0,0,0,.35,1.07,1.84,1.84,0,0,0,.65.55c.24.12.82.33,1.74.64,1.81.59,2.71,1.56,2.71,2.91a2.83,2.83,0,0,1-1,2.24,3.72,3.72,0,0,1-2.55.87,5.78,5.78,0,0,1-1.24-.16,3.31,3.31,0,0,1-1-.38.56.56,0,0,1-.17-.18,4.17,4.17,0,0,1-.13-.51s-.07-.26-.19-.67a4.32,4.32,0,0,1-.19-.94q0-.21.15-.21t.24.36a2.88,2.88,0,0,0,1.11,1.53,3.08,3.08,0,0,0,1.84.61,2.54,2.54,0,0,0,1.71-.59,1.84,1.84,0,0,0,.7-1.44,1.73,1.73,0,0,0-.65-1.37,7.18,7.18,0,0,0-1.9-.82,6.12,6.12,0,0,1-2.3-1.21,2.34,2.34,0,0,1-.68-1.73,2.41,2.41,0,0,1,.89-1.93A3.36,3.36,0,0,1,455.51,50.31Z"/><path class="cls-1" d="M462.23,52.64v5.5a4.79,4.79,0,0,0,.12,1.35,1.17,1.17,0,0,0,.36.53,1.46,1.46,0,0,0,.68.22c.24,0,.37.1.37.18s-.08.17-.23.17a1.52,1.52,0,0,1-.28,0,6.83,6.83,0,0,0-.78,0l-1.06,0-.86,0a2.37,2.37,0,0,1-.35,0c-.13,0-.2-.05-.2-.15s.08-.14.23-.16a.89.89,0,0,0,.71-.39,2.85,2.85,0,0,0,.17-1.22V52.39a2.43,2.43,0,0,0-.21-1.22,1.31,1.31,0,0,0-.89-.43c-.15,0-.23-.08-.24-.17s.07-.16.21-.16h.14a10.75,10.75,0,0,0,1.42.07q.54,0,.93,0l.49,0h.18c.13,0,.2.05.2.14s-.06.15-.19.19l-.38.15C462.41,51,462.23,51.61,462.23,52.64Z"/><path class="cls-1" d="M473.62,53.31v6.14a9.34,9.34,0,0,1,0,1c0,.12-.1.18-.21.17a.24.24,0,0,1-.17-.07l-.16-.19-6.17-7.06-.08-.08a.13.13,0,0,0-.1,0c-.09,0-.14.11-.14.33V58.8l0,.52a1,1,0,0,0,.25.67,1.56,1.56,0,0,0,.77.27q.24,0,.24.18a.13.13,0,0,1-.15.15l-.22,0-.64,0-.74,0h-.36a4.56,4.56,0,0,0-.54,0,1.59,1.59,0,0,1-.27,0c-.13,0-.19,0-.2-.13s.06-.13.2-.18a1.46,1.46,0,0,0,.83-.57,2.24,2.24,0,0,0,.22-1.15v-5a4.3,4.3,0,0,0-.4-2,1.54,1.54,0,0,0-1.17-.83c-.13,0-.2-.07-.2-.16s.06-.14.17-.14h1.29a.51.51,0,0,1,.37.21l6.74,7.63c.1.12.17.18.2.18s.08-.06.08-.14V53.7L473,52a1.36,1.36,0,0,0-.36-.88,2,2,0,0,0-1.05-.39q-.21,0-.21-.18c0-.09.07-.13.21-.13a2,2,0,0,1,.31,0c.34,0,.79,0,1.36,0a4.48,4.48,0,0,0,.72,0l.36,0q.19,0,.21.15c0,.07,0,.11-.15.14a.91.91,0,0,0-.59.37,2.13,2.13,0,0,0-.14,1v.79Z"/><path class="cls-1" d="M484.94,51.36l.23,1.76,0,.18,0,.07a.13.13,0,0,1-.11.08c-.06,0-.14-.1-.26-.31a4.15,4.15,0,0,0-3.72-2.4,3.85,3.85,0,0,0-2.94,1.15A4.4,4.4,0,0,0,477.06,55a5.69,5.69,0,0,0,1.2,3.74,3.8,3.8,0,0,0,3.08,1.45,4.45,4.45,0,0,0,2.16-.59A3.32,3.32,0,0,0,485,58.21c.13-.26.23-.39.3-.4s.11,0,.11.14V58l0,.16-.17.9,0,.13c0,.13-.13.26-.34.4a6.79,6.79,0,0,1-3.73,1.08,5.24,5.24,0,0,1-3.8-1.4,4.9,4.9,0,0,1-1.45-3.68,5.19,5.19,0,0,1,1.5-3.8,5,5,0,0,1,3.75-1.51,5.83,5.83,0,0,1,2.84.7l.29.15.12.05.12,0a.17.17,0,0,0,.11-.06.59.59,0,0,1,.22-.12C484.86,51.08,484.91,51.17,484.94,51.36Z"/><path class="cls-1" d="M488.89,51.65v3A.7.7,0,0,0,489,55a.62.62,0,0,0,.37.07h1.13a6.54,6.54,0,0,0,1.22-.09,1.13,1.13,0,0,0,.51-.21,1.47,1.47,0,0,0,.21-.62c0-.12.09-.18.19-.17s.14.07.14.19a1,1,0,0,1,0,.16c0,.48-.06.91-.06,1.3a8.64,8.64,0,0,0,0,.88c0,.1,0,.17,0,.21s-.05.18-.15.18a.17.17,0,0,1-.18-.16l-.05-.2a.92.92,0,0,0-.35-.67,1.64,1.64,0,0,0-.89-.17h-1.61a1,1,0,0,0-.48.07.32.32,0,0,0-.12.29v3c0,.41.08.67.23.77a2.33,2.33,0,0,0,1.13.16c1.91,0,3.14-.44,3.69-1.3.06-.08.11-.13.17-.13s.13.06.13.19a2,2,0,0,1-.53,1.13,2,2,0,0,1-1.63.79l-.57,0c-.93-.09-1.71-.13-2.32-.13a14.68,14.68,0,0,0-1.81.08,2.1,2.1,0,0,1-.38.06c-.15,0-.23-.06-.23-.16s.06-.14.19-.17l.28-.08c.35-.1.53-.44.53-1V52.5a2.83,2.83,0,0,0-.23-1.41,1,1,0,0,0-.89-.36c-.15,0-.22,0-.22-.14s.11-.2.33-.2a3.39,3.39,0,0,1,.49,0,22.62,22.62,0,0,0,2.52.12c.6,0,1.13,0,1.58,0l1-.06a4.5,4.5,0,0,0,.53,0l.29,0c.17,0,.25.07.25.21a.67.67,0,0,1,0,.17c0,.06,0,.26-.05.58l0,.43a2.8,2.8,0,0,1-.08.53.15.15,0,0,1-.16.11c-.1,0-.14-.07-.14-.22V52a1.12,1.12,0,0,0-.09-.44.76.76,0,0,0-.56-.44,7,7,0,0,0-1.56-.11h-1.15a.93.93,0,0,0-.58.11A.66.66,0,0,0,488.89,51.65Z"/><path class="cls-1" d="M502.94,51.7v7.16a1.62,1.62,0,0,0,.26,1.06,1.35,1.35,0,0,0,1,.27h.12a.56.56,0,0,1,.2,0,.13.13,0,0,1,.09.14c0,.09-.1.14-.29.14l-.38,0h-1.61c-.47,0-.82,0-1.06,0l-.59,0c-.13,0-.2,0-.2-.12s.07-.17.23-.18l.41,0c.51,0,.77-.34.77-.92V52.44a1,1,0,0,0-.13-.62.63.63,0,0,0-.5-.17,1.34,1.34,0,0,0-.66.15.65.65,0,0,1-.2.06c-.09,0-.12,0-.12-.1s.28-.37.82-.53a4.55,4.55,0,0,0,1.64-.89.51.51,0,0,1,.2-.12c.09,0,.14.05.14.16a1.73,1.73,0,0,1-.05.31A4.74,4.74,0,0,0,502.94,51.7Z"/><path class="cls-1" d="M509.78,54.84a3,3,0,0,1,1.2,5,2.92,2.92,0,0,1-2.17.87,3.07,3.07,0,0,1-2.19-.81,2.72,2.72,0,0,1-.85-2.07,2.63,2.63,0,0,1,.42-1.51,4.23,4.23,0,0,1,1.4-1.22,2.44,2.44,0,0,1-.63-4,2.88,2.88,0,0,1,3.76-.1,2.07,2.07,0,0,1,.73,1.61A2.16,2.16,0,0,1,511,53.9,2.94,2.94,0,0,1,509.78,54.84Zm-1.69.48a2.35,2.35,0,0,0-1.58,2.25,2.75,2.75,0,0,0,.72,1.9,2.23,2.23,0,0,0,1.72.79,1.94,1.94,0,0,0,1.47-.59,2.05,2.05,0,0,0,.58-1.51,2.16,2.16,0,0,0-.66-1.55,6.06,6.06,0,0,0-1.9-1.12Zm.59-4.56a1.7,1.7,0,0,0-1.23.48,1.6,1.6,0,0,0-.49,1.2,1.8,1.8,0,0,0,1,1.64,2.64,2.64,0,0,0,1.28.39,1.39,1.39,0,0,0,1.07-.47,1.8,1.8,0,0,0,.41-1.2,2,2,0,0,0-.56-1.48A2,2,0,0,0,508.68,50.76Z"/><path class="cls-1" d="M517.28,54.84a3,3,0,0,1,1.2,5,2.92,2.92,0,0,1-2.17.87,3.07,3.07,0,0,1-2.19-.81,2.72,2.72,0,0,1-.85-2.07,2.63,2.63,0,0,1,.42-1.51,4.23,4.23,0,0,1,1.4-1.22,2.44,2.44,0,0,1-.63-4,2.88,2.88,0,0,1,3.76-.1,2.07,2.07,0,0,1,.73,1.61,2.16,2.16,0,0,1-.43,1.33A2.94,2.94,0,0,1,517.28,54.84Zm-1.69.48A2.35,2.35,0,0,0,514,57.57a2.75,2.75,0,0,0,.72,1.9,2.23,2.23,0,0,0,1.72.79,1.94,1.94,0,0,0,1.47-.59,2.05,2.05,0,0,0,.58-1.51,2.16,2.16,0,0,0-.66-1.55,6.06,6.06,0,0,0-1.9-1.12Zm.59-4.56a1.7,1.7,0,0,0-1.23.48,1.6,1.6,0,0,0-.49,1.2,1.8,1.8,0,0,0,1,1.64,2.64,2.64,0,0,0,1.28.39,1.39,1.39,0,0,0,1.07-.47,1.8,1.8,0,0,0,.41-1.2,2,2,0,0,0-.56-1.48A2,2,0,0,0,516.18,50.76Z"/><path class="cls-1" d="M523.67,51.7v7.16a1.56,1.56,0,0,0,.26,1.06,1.34,1.34,0,0,0,1,.27H525a.5.5,0,0,1,.19,0,.13.13,0,0,1,.1.14c0,.09-.1.14-.29.14l-.38,0H523c-.47,0-.83,0-1.06,0l-.59,0c-.14,0-.2,0-.2-.12s.07-.17.22-.18l.41,0c.52,0,.78-.34.78-.92V52.44a1,1,0,0,0-.13-.62.64.64,0,0,0-.51-.17,1.4,1.4,0,0,0-.66.15.62.62,0,0,1-.19.06c-.09,0-.13,0-.12-.1s.28-.37.82-.53a4.43,4.43,0,0,0,1.63-.89.46.46,0,0,1,.21-.12c.09,0,.14.05.14.16a1.73,1.73,0,0,1,0,.31A4.74,4.74,0,0,0,523.67,51.7Z"/></g></g></svg>